<?xml version="1.0" encoding="UTF-8"?>
<svg xmlns="http://www.w3.org/2000/svg" xmlns:xlink="http://www.w3.org/1999/xlink" width="400.835pt" height="304.458pt" viewBox="0 0 400.835 304.458">
<defs>
<g>
<g id="glyph-0-0">
<path d="m5.73-4.45c0-.89-.92-1.66-2.15-1.66l-3.22 0 0 .27 .2 0c.69 0 .71 .11 .71 .43l0 4.71c0 .32-.02 .42-.71 .42l-.2 0 0 .28c.41-.03 .91-.03 1.31-.03 .42 0 .92 0 1.31 .03l0-.28-.2 0c-.69 0-.7-.1-.7-.42l0-2.11 1.5 0c1.25 0 2.15-.78 2.15-1.64zm-.9 0c0 .4 0 1.39-1.49 1.39l-1.29 0 0-2.41c0-.31 .01-.37 .43-.37l.86 0c1.49 0 1.49 .98 1.49 1.39z"/>
</g>
<g id="glyph-0-1">
<path d="m3.34-3.41c0-.28-.26-.54-.67-.54-.55 0-.92 .37-1.12 .92l0-.92-1.28 .09 0 .28c.61 0 .68 .06 .68 .5l0 2.39c0 .41-.09 .41-.68 .41l0 .28c.48-.02 .59-.03 1.04-.03l1.14 .03 0-.28-.17 0c-.66 0-.69-.1-.69-.42l0-1.35c0-.37 .1-1.68 1.13-1.68l0 .01c-.03 0-.17 .11-.17 .33 0 .23 .18 .39 .4 .39 .19 0 .39-.14 .39-.41z"/>
</g>
<g id="glyph-0-2">
<path d="m3.83-1.06c0-.06-.05-.13-.13-.13-.09 0-.12 .07-.12 .11-.31 .91-1.11 .92-1.24 .92-.43 0-.79-.23-1.01-.54-.3-.44-.3-.97-.3-1.35l2.55 0c.2 0 .25 0 .25-.18 0-.93-.5-1.79-1.66-1.79-1.08 0-1.9 .94-1.9 2.05 0 1.17 .93 2.06 2.03 2.06 1.09 0 1.53-.95 1.53-1.15zm-.61-1.21l-2.19 0c.09-1.37 .89-1.51 1.14-1.51 .5 0 1.03 .37 1.05 1.51z"/>
</g>
<g id="glyph-0-3">
<path d="m3.83-1.06c0-.11-.11-.11-.13-.11-.11 0-.11 .01-.15 .17-.21 .61-.71 .84-1.17 .84-.57 0-1.3-.46-1.3-1.78 0-1.4 .72-1.83 1.25-1.83 .11 0 .59 .02 .94 .25-.19 .04-.38 .16-.38 .43 0 .23 .19 .4 .41 .4 .23 0 .42-.15 .42-.42 0-.56-.63-.91-1.41-.91-1.15 0-2.01 .97-2.01 2.08 0 1.16 .93 2.03 2 2.03 1.23 0 1.53-1.07 1.53-1.15z"/>
</g>
<g id="glyph-0-4">
<path d="m2.27 0l0-.28c-.58 0-.63-.05-.63-.39l0-3.28-1.28 .09 0 .28c.58 0 .66 .05 .66 .49l0 2.4c0 .41-.11 .41-.69 .41l0 .28c.39-.02 .58-.03 .98-.03 .14 0 .52 0 .96 .03zm-.5-5.41c0-.26-.22-.47-.49-.47-.26 0-.48 .21-.48 .47 0 .29 .22 .49 .48 .49 .27 0 .49-.2 .49-.49z"/>
</g>
<g id="glyph-0-5">
<path d="m4.33-1.91c0-1.17-.92-2.11-2.03-2.11-1.14 0-2.03 .97-2.03 2.11 0 1.13 .92 2 2.03 2 1.12 0 2.03-.9 2.03-2zm-.77-.07c0 .32 0 .84-.22 1.23-.25 .42-.67 .59-1.04 .59-.44 0-.82-.22-1.03-.56-.24-.37-.24-.86-.24-1.26 0-.33 0-.85 .22-1.22 .27-.46 .72-.58 1.05-.58 .5 0 .87 .28 1.04 .58 .21 .39 .22 .84 .22 1.22z"/>
</g>
<g id="glyph-0-6">
<path d="m4.83 0l0-.28c-.61 0-.69-.06-.69-.5l0-5.44-1.33 .11 0 .27c.61 0 .71 .06 .71 .5l0 1.92c-.05-.06-.46-.53-1.16-.53-1.09 0-2.06 .87-2.06 2.03 0 1.11 .9 2.01 1.97 2.01 .65 0 1.06-.37 1.21-.56l0 .56zm-1.35-1.08c0 .17 0 .19-.14 .38-.26 .4-.68 .58-1.04 .58-.38 0-.74-.22-.97-.6-.24-.37-.25-.9-.25-1.2 0-.42 .04-.89 .28-1.25 .2-.28 .56-.56 1.05-.56 .37 0 .73 .18 .97 .53 .1 .14 .1 .15 .1 .31z"/>
</g>
<g id="glyph-0-7">
<path d="m4.8-1.94c0-1.11-.89-2.01-1.96-2.01-.61 0-1.03 .31-1.25 .54l0-2.81-1.32 .11 0 .27c.61 0 .68 .06 .68 .5l0 5.34 .25 0 .35-.55c.26 .39 .72 .64 1.2 .64 1.06 0 2.05-.86 2.05-2.03zm-.77 0c0 .42-.06 .89-.28 1.25-.2 .28-.58 .57-1.05 .57-.4 0-.75-.22-.95-.55-.13-.19-.13-.21-.13-.36l0-1.83c0-.17 0-.17 .1-.31 .3-.42 .75-.56 1.08-.56 .39 0 .75 .21 .98 .59 .24 .39 .25 .91 .25 1.2z"/>
</g>
<g id="glyph-0-8">
<path d="m2.34 0l0-.28c-.59 0-.7 0-.7-.41l0-5.53-1.31 .11 0 .27c.61 0 .69 .06 .69 .5l0 4.65c0 .41-.11 .41-.69 .41l0 .28c.42-.02 .58-.03 1-.03 .42 0 .56 .01 1.01 .03z"/>
</g>
<g id="glyph-0-9">
<path d="m3.31-1.14c0-.41-.17-.66-.37-.86-.32-.3-.63-.36-1.3-.48-.22-.05-.87-.16-.87-.68 0-.28 .2-.65 1.01-.65 .97 0 1.03 .73 1.05 .97 .01 .11 .01 .15 .12 .15 .13 0 .13-.06 .13-.23l0-.86c0-.16 0-.24-.11-.24-.05 0-.06 0-.17 .11-.02 .02-.11 .1-.16 .14-.28-.18-.55-.25-.86-.25-1.19 0-1.48 .66-1.48 1.11 0 .3 .14 .53 .34 .72 .3 .28 .64 .35 1.09 .42 .46 .1 .61 .13 .82 .27 .07 .08 .31 .25 .31 .59 0 .79-.91 .79-1.03 .79-.92 0-1.14-.77-1.25-1.26-.03-.07-.05-.14-.14-.14-.14 0-.14 .08-.14 .24l0 1.14c0 .16 0 .23 .11 .23 .06 0 .06 0 .23-.17 .03-.06 .13-.17 .17-.22 .38 .38 .8 .39 1.02 .39 1.09 0 1.48-.64 1.48-1.23z"/>
</g>
<g id="glyph-0-10">
<path d="m4.45-.8l0-.5-.25 0 0 .49c0 .11 0 .54-.32 .54-.33 0-.33-.42-.33-.56l0-1.58c0-.5 0-.81-.39-1.17-.35-.3-.77-.44-1.22-.44-.75 0-1.38 .38-1.38 .96 0 .28 .19 .44 .42 .44 .25 0 .41-.19 .41-.43 0-.37-.39-.42-.39-.42 .23-.23 .67-.31 .92-.31 .46 0 .97 .33 .97 1.12l0 .3c-.48 .02-1.16 .06-1.75 .34-.64 .32-.84 .79-.84 1.14 0 .74 .86 .97 1.47 .97 .73 0 1.07-.48 1.2-.73 .05 .37 .31 .69 .69 .69 .23 0 .79-.13 .79-.85zm-1.56-.47c0 .88-.67 1.15-1.06 1.15-.42 0-.81-.32-.81-.76 0-.59 .5-1.21 1.87-1.28z"/>
</g>
<g id="glyph-0-11">
<path d="m6.77-2.17l0-.28c-.6 .03-.69 .03-1.16 .03-.36 0-1.13 0-1.44-.03l0 .28 .28 0c.85 0 .86 .11 .86 .44l0 .56c0 1.09-1.36 1.09-1.47 1.09-.73 0-2.42-.44-2.42-2.98 0-2.5 1.63-2.97 2.38-2.97 .89 0 1.82 .67 2.04 2.12 .02 .11 .02 .16 .14 .16 .14 0 .14-.05 .14-.23l0-2.1c0-.15 0-.23-.1-.23-.07 0-.1 .03-.14 .11l-.46 .67c-.3-.28-.8-.78-1.7-.78-1.74 0-3.2 1.43-3.2 3.25 0 1.83 1.45 3.26 3.2 3.26 .84 0 1.48-.32 1.75-.76 .14 .23 .47 .54 .56 .54 .09 0 .09-.07 .09-.21l0-1.54c0-.35 .04-.4 .65-.4z"/>
</g>
<g id="glyph-0-12">
<path d="m4.89 0l0-.28c-.45 0-.67 0-.69-.28l0-1.72c0-.74 0-1-.25-1.31-.2-.25-.54-.36-.98-.36-.85 0-1.22 .61-1.35 .86l-.01 0 0-.86-1.3 .09 0 .28c.61 0 .69 .06 .69 .5l0 2.39c0 .41-.09 .41-.69 .41l0 .28c.42-.02 .6-.03 1.02-.03 .44 0 .55 .01 1.03 .03l0-.28c-.59 0-.69 0-.69-.41l0-1.62c0-.96 .67-1.42 1.24-1.42 .51 0 .64 .43 .64 .98l0 2.06c0 .41-.1 .41-.69 .41l0 .28c.42-.02 .59-.03 1.02-.03 .43 0 .54 .01 1.01 .03z"/>
</g>
<g id="glyph-0-13">
<path d="m4.33-1.91c0-1.17-.92-2.11-2.03-2.11-1.14 0-2.03 .97-2.03 2.11 0 1.13 .92 2 2.03 2 1.12 0 2.03-.9 2.03-2zm-.77-.07c0 .32 0 .84-.22 1.23-.25 .42-.67 .59-1.04 .59-.44 0-.82-.22-1.03-.56-.24-.37-.24-.86-.24-1.26 0-.33 0-.85 .22-1.22 .27-.46 .72-.58 1.05-.58 .5 0 .87 .28 1.04 .58 .21 .39 .22 .84 .22 1.22zm-.12-3.93c0-.2-.17-.34-.35-.34-.14 0-.18 .06-.28 .16l-1.08 1.36 .16 .18 1.36-1.06c.11-.08 .19-.16 .19-.3z"/>
</g>
<g id="glyph-0-14">
<path d="m3.06-1.11l0-.51-.25 0 0 .48c0 .67-.28 .98-.59 .98-.61 0-.61-.78-.61-.93l0-2.49 1.3 0 0-.28-1.3 0 0-1.64-.25 0c0 .75-.33 1.67-1.19 1.69l0 .23 .78 0 0 2.47c0 1 .72 1.2 1.21 1.2 .59 0 .9-.56 .9-1.2z"/>
</g>
<g id="glyph-0-15">
<path d="m3.83-1.06c0-.06-.05-.13-.13-.13-.09 0-.12 .07-.12 .11-.31 .91-1.11 .92-1.24 .92-.43 0-.79-.23-1.01-.54-.3-.44-.3-.97-.3-1.35l2.55 0c.2 0 .25 0 .25-.18 0-.93-.5-1.79-1.66-1.79-1.08 0-1.9 .94-1.9 2.05 0 1.17 .93 2.06 2.03 2.06 1.09 0 1.53-.95 1.53-1.15zm-.61-1.21l-2.19 0c.09-1.37 .89-1.51 1.14-1.51 .5 0 1.03 .37 1.05 1.51zm-.03-3.64c0-.2-.17-.34-.35-.34-.15 0-.18 .06-.28 .16l-1.08 1.36 .16 .18 1.36-1.06c.11-.08 .19-.16 .19-.3z"/>
</g>
<g id="glyph-0-16">
<path d="m7.45 0l0-.28c-.45 0-.67 0-.68-.28l0-1.72c0-.77 0-1.02-.3-1.36-.19-.2-.55-.31-.95-.31-.64 0-1.08 .37-1.33 .84-.11-.53-.47-.84-1.22-.84-.72 0-1.16 .47-1.35 .87l-.01 0 0-.87-1.3 .09 0 .28c.61 0 .69 .06 .69 .5l0 2.39c0 .41-.09 .41-.69 .41l0 .28c.42-.02 .6-.03 1.02-.03 .44 0 .55 .01 1.03 .03l0-.28c-.59 0-.69 0-.69-.41l0-1.62c0-.97 .69-1.42 1.24-1.42 .48 0 .64 .34 .64 .98l0 2.06c0 .41-.1 .41-.69 .41l0 .28c.42-.02 .59-.03 1.03-.03 .42 0 .55 .01 1.02 .03l0-.28c-.6 0-.69 0-.69-.41l0-1.62c0-.97 .7-1.42 1.23-1.42 .49 0 .66 .34 .66 .98l0 2.06c0 .41-.11 .41-.69 .41l0 .28c.42-.02 .58-.03 1.02-.03 .42 0 .54 .01 1.01 .03z"/>
</g>
<g id="glyph-0-17">
<path d="m4.89 0l0-.28c-.45 0-.67 0-.69-.28l0-1.72c0-.74 0-1-.25-1.31-.2-.25-.54-.36-.98-.36-.61 0-1.05 .31-1.33 .81l0-3.08-1.33 .11 0 .27c.61 0 .69 .06 .69 .5l0 4.65c0 .41-.09 .41-.69 .41l0 .28c.42-.02 .6-.03 1.02-.03 .44 0 .55 .01 1.03 .03l0-.28c-.59 0-.69 0-.69-.41l0-1.62c0-.96 .67-1.42 1.24-1.42 .51 0 .64 .43 .64 .98l0 2.06c0 .41-.1 .41-.69 .41l0 .28c.42-.02 .59-.03 1.02-.03 .43 0 .54 .01 1.01 .03z"/>
</g>
<g id="glyph-0-18">
<path d="m4.45-.8l0-.5-.25 0 0 .49c0 .11 0 .54-.32 .54-.33 0-.33-.42-.33-.56l0-1.58c0-.5 0-.81-.39-1.17-.35-.3-.77-.44-1.22-.44-.75 0-1.38 .38-1.38 .96 0 .28 .19 .44 .42 .44 .25 0 .41-.19 .41-.43 0-.37-.39-.42-.39-.42 .23-.23 .67-.31 .92-.31 .46 0 .97 .33 .97 1.12l0 .3c-.48 .02-1.16 .06-1.75 .34-.64 .32-.84 .79-.84 1.14 0 .74 .86 .97 1.47 .97 .73 0 1.07-.48 1.2-.73 .05 .37 .31 .69 .69 .69 .23 0 .79-.13 .79-.85zm-1.56-.47c0 .88-.67 1.15-1.06 1.15-.42 0-.81-.32-.81-.76 0-.59 .5-1.21 1.87-1.28zm.55-4.64c0-.2-.17-.34-.35-.34-.14 0-.18 .06-.28 .16l-1.08 1.36 .16 .18 1.36-1.06c.11-.08 .19-.16 .19-.3z"/>
</g>
<g id="glyph-0-19">
<path d="m4.89 0l0-.28c-.61 0-.69-.06-.69-.5l0-3.17-1.34 .09 0 .28c.61 0 .69 .06 .69 .5l0 1.58c0 .8-.46 1.38-1.1 1.38-.75 0-.78-.4-.78-.88l0-2.95-1.36 .09 0 .28c.69 0 .69 .03 .69 .83l0 1.33c0 .59 0 .97 .42 1.28 .25 .17 .63 .23 .99 .23 .45 0 .89-.2 1.15-.73l.02 0 0 .73z"/>
</g>
<g id="glyph-0-20">
<path d="m6.55-5.84l0-.27c-.49 .02-.61 .02-1.05 .02-.44 0-.55 0-1.05-.02l0 .27c.91 0 .91 .43 .91 .67l0 3.83-3.25-4.66c-.06-.11-.09-.11-.27-.11l-1.5 0 0 .27 .25 0c.43 0 .66 .06 .66 .06l0 4.83c0 .25 0 .67-.91 .67l0 .28c.49-.02 .61-.03 1.05-.03 .44 0 .56 .01 1.05 .03l0-.28c-.91 0-.91-.42-.91-.67l0-4.61 3.81 5.45c.07 .11 .11 .11 .16 .11 .14 0 .14-.08 .14-.23l0-4.94c0-.24 0-.67 .91-.67z"/>
</g>
<g id="glyph-0-21">
<path d="m4.67-3.58l0-.28c-.28 .03-.7 .03-.7 .03-.25 0-.52-.01-.77-.03l0 .28c.25 .02 .41 .16 .41 .38 0 .09-.02 .11-.05 .22l-.94 2.25-1.01-2.44c-.03-.06-.05-.11-.05-.17 0-.24 .33-.24 .5-.24l0-.28c-.39 .02-.59 .03-.98 .03-.31 0-.58 0-.91-.03l0 .28c.42 0 .6 0 .74 .33l1.31 3.17c.05 .16 .12 .17 .2 .17 .08 0 .14-.01 .2-.17l1.22-2.94c.19-.45 .5-.56 .83-.56z"/>
</g>
<g id="glyph-0-22">
<path d="m6.73-.8c0-.04 0-.15-.12-.15-.13 0-.13 .07-.13 .14-.04 .58-.32 .78-.6 .78-.29 0-.38-.17-.46-.33-.08-.2-.15-.8-.22-1.2-.06-.56-.14-1.16-1.14-1.47 .86-.25 1.55-.78 1.55-1.47 0-.89-1.08-1.61-2.39-1.61l-2.86 0 0 .27 .2 0c.69 0 .71 .11 .71 .43l0 4.71c0 .32-.02 .42-.71 .42l-.2 0 0 .28c.42-.03 .87-.03 1.3-.03 .43 0 .87 0 1.31 .03l0-.28-.22 0c-.69 0-.7-.1-.7-.42l0-2.25 1.07 0c.65 0 .94 .34 .97 .39 .27 .33 .27 .45 .27 1.09 0 .59 0 1 .44 1.33 .4 .34 .95 .34 1.04 .34 .75 0 .89-.78 .89-1zm-2.03-3.7c0 .77-.39 1.33-1.61 1.33l-1.04 0 0-2.3c0-.23 .01-.31 .18-.34 .08-.03 .38-.03 .57-.03 .76 0 1.9 0 1.9 1.34z"/>
</g>
<g id="glyph-0-23">
<path d="m3.7-1.7l-.25 0c-.09 1-.22 1.45-1.33 1.45l-1.04 0 2.51-3.33c.08-.09 .08-.11 .08-.14 0-.14-.09-.14-.25-.14l-2.94 0-.09 1.47 .25 0c.05-.91 .2-1.25 1.22-1.25l1 0-2.52 3.34c-.07 .1-.07 .11-.07 .16 0 .14 .07 .14 .23 .14l3.05 0z"/>
</g>
<g id="glyph-0-24">
<path d="m6.52-3.02c0-1.68-1.25-3.09-2.83-3.09l-3.33 0 0 .27 .2 0c.69 0 .71 .11 .71 .43l0 4.71c0 .32-.02 .42-.71 .42l-.2 0 0 .28 3.33 0c1.54 0 2.83-1.33 2.83-3.02zm-.9 0c0 .38 0 1.32-.5 1.94-.45 .61-1.1 .8-1.67 .8l-.97 0c-.42 0-.43-.06-.43-.36l0-4.83c0-.31 .01-.37 .43-.37l.97 0c.86 0 1.41 .46 1.64 .78 .39 .51 .53 1.17 .53 2.04z"/>
</g>
<g id="glyph-0-25">
<path d="m5.98-2.31l-.25 0c-.21 1.39-.45 2.03-1.98 2.03l-1.25 0c-.42 0-.44-.06-.44-.36l0-2.39 .83 0c.88 0 .99 .28 .99 1.05l.24 0 0-2.36-.24 0c0 .76-.11 1.04-.99 1.04l-.83 0 0-2.14c0-.31 .02-.37 .44-.37l1.2 0c1.39 0 1.64 .48 1.78 1.73l.25 0-.25-2.01-5.14 0 0 .28 .21 0c.68 0 .7 .09 .7 .43l0 4.68c0 .32-.02 .42-.7 .42l-.21 0 0 .28 5.27 0z"/>
</g>
<g id="glyph-0-26">
<path d="m4.47-3.61c0-.17-.13-.45-.49-.45-.26 0-.65 .11-.96 .42-.25-.19-.6-.31-.97-.31-.86 0-1.5 .61-1.5 1.31 0 .45 .26 .78 .4 .91-.01 .03-.26 .34-.26 .75 0 .29 .14 .62 .39 .78-.46 .15-.81 .48-.81 .9 0 .63 .87 1.14 2.03 1.14 1.09 0 2.03-.46 2.03-1.15 0-.38-.17-.77-.5-.99-.5-.31-1.02-.31-1.88-.31-.17 0-.45 0-.53-.01-.26-.07-.42-.3-.42-.58 0-.16 .03-.28 .12-.41 .22 .16 .5 .28 .91 .28 .86 0 1.5-.61 1.5-1.31 0-.44-.25-.75-.37-.88 .36-.31 .78-.31 .89-.31-.05 .02-.11 .06-.11 .24 0 .09 .06 .26 .26 .26 .13 0 .27-.09 .27-.28zm-1.63 .97c0 .2 0 1.08-.81 1.08-.8 0-.8-.88-.8-1.08 0-.25 .02-.55 .18-.77 .14-.17 .37-.31 .62-.31 .81 0 .81 .88 .81 1.08zm.99 3.33c0 .51-.69 .92-1.53 .92-.88 0-1.53-.42-1.53-.92 0-.14 .07-.74 .85-.74l.82 0c.29 0 1.39 .02 1.39 .74z"/>
</g>
<g id="glyph-0-27">
<path d="m2.27 0l0-.28c-.58 0-.63-.05-.63-.39l0-3.28-1.28 .09 0 .28c.58 0 .66 .05 .66 .49l0 2.4c0 .41-.11 .41-.69 .41l0 .28c.39-.02 .58-.03 .98-.03 .14 0 .52 0 .96 .03zm.15-5.91c0-.2-.19-.34-.34-.34-.16 0-.2 .06-.28 .16l-1.1 1.36 .18 .18 1.35-1.06c.11-.08 .19-.16 .19-.3z"/>
</g>
<g id="glyph-0-28">
<path d="m4.83 1.73l0-.28c-.58 0-.69 0-.69-.4l0-5-.22 0-.34 .78c-.42-.71-.92-.78-1.24-.78-1.06 0-2.04 .86-2.04 2.03 0 1.14 .92 2.01 1.97 2.01 .37 0 .82-.12 1.21-.62l0 1.58c0 .4-.09 .4-.68 .4l0 .28c.42-.01 .59-.03 1.01-.03 .44 0 .55 .02 1.02 .03zm-1.31-2.96c0 .15 0 .2-.14 .43-.22 .39-.6 .68-1.08 .68-.66 0-1.22-.79-1.22-1.8 0-1.05 .62-1.78 1.33-1.78 .68 0 1.11 .73 1.11 1.23z"/>
</g>
<g id="glyph-0-29">
<path d="m4.8-1.94c0-1.12-.88-2.01-1.94-2.01-.48 0-.92 .18-1.27 .56l0-.56-1.32 .09 0 .28c.64 0 .68 .05 .68 .44l0 4.19c0 .4-.09 .4-.68 .4l0 .28c.42-.01 .59-.03 1.03-.03 .42 0 .53 .02 1.01 .03l0-.28c-.59 0-.69 0-.69-.4l0-1.49c.24 .24 .54 .53 1.13 .53 1.06 0 2.05-.86 2.05-2.03zm-.77 0c0 1.03-.61 1.82-1.34 1.82-.39 0-.74-.24-.96-.55-.11-.17-.11-.21-.11-.36l0-1.99c.3-.51 .8-.68 1.18-.68 .68 0 1.23 .79 1.23 1.76z"/>
</g>
<g id="glyph-0-30">
<path d="m3.02 0l0-.28-.22 0c-.72 0-.74-.11-.74-.42l0-4.71c0-.32 .02-.43 .74-.43l.22 0 0-.27c-.36 .02-.97 .02-1.36 .02-.39 0-1 0-1.36-.02l0 .27 .22 0c.71 0 .73 .11 .73 .43l0 4.71c0 .31-.02 .42-.73 .42l-.22 0 0 .28c.36-.03 .97-.03 1.36-.03 .39 0 1 0 1.36 .03z"/>
</g>
<g id="glyph-0-31">
<path d="m6.12-2.08c0-.09 0-.17-.12-.17-.12 0-.12 .06-.12 .14-.08 1.36-1.15 2.03-2.07 2.03-.76 0-2.39-.48-2.39-2.98 0-2.5 1.63-2.97 2.38-2.97 .89 0 1.82 .67 2.04 2.12 .02 .11 .02 .16 .14 .16 .14 0 .14-.05 .14-.23l0-2.1c0-.15 0-.23-.1-.23-.07 0-.1 .03-.14 .11l-.46 .67c-.3-.28-.8-.78-1.7-.78-1.74 0-3.2 1.43-3.2 3.25 0 1.84 1.48 3.26 3.2 3.26 1.48 0 2.4-1.23 2.4-2.28z"/>
</g>
<g id="glyph-0-32">
<path d="m5.36-2.31l-.25 0c-.11 .9-.23 2.03-1.83 2.03l-.78 0c-.42 0-.44-.06-.44-.36l0-4.77c0-.32 .03-.43 .85-.43l.29 0 0-.27c-.31 .02-1.14 .02-1.5 .02-.4 0-.95 0-1.36-.02l0 .27 .21 0c.68 0 .7 .11 .7 .43l0 4.71c0 .32-.02 .42-.7 .42l-.21 0 0 .28 4.77 0z"/>
</g>
<g id="glyph-0-33">
<path d="m3.05 2.12c0-.03-.02-.06-.08-.12-1.16-1.06-1.5-2.67-1.5-4.23 0-1.39 .26-3.08 1.53-4.29 .03-.03 .05-.06 .05-.09 0-.06-.03-.11-.1-.11-.11 0-.92 .66-1.4 1.63-.43 .86-.64 1.78-.64 2.84 0 .64 .07 1.67 .57 2.72 .52 1.11 1.36 1.76 1.47 1.76 .07 0 .1-.04 .1-.11z"/>
</g>
<g id="glyph-0-34">
<path d="m2.67-2.25c0-.73-.11-1.72-.58-2.7-.53-1.11-1.36-1.77-1.47-1.77-.09 0-.1 .08-.1 .11 0 .03 .01 .06 .07 .13 .53 .46 1.52 1.68 1.52 4.23 0 1.28-.23 3.06-1.53 4.27-.02 .03-.06 .07-.06 .1 0 .04 .01 .11 .1 .11 .11 0 .93-.65 1.4-1.62 .43-.86 .65-1.78 .65-2.86z"/>
</g>
<g id="glyph-0-35">
<path d="m1.75-3.38c0-.26-.2-.48-.48-.48-.27 0-.49 .22-.49 .48 0 .27 .22 .49 .49 .49 .28 0 .48-.22 .48-.49zm0 2.9c0-.27-.2-.49-.48-.49-.27 0-.49 .22-.49 .49 0 .26 .22 .48 .49 .48 .28 0 .48-.22 .48-.48z"/>
</g>
<g id="glyph-0-36">
<path d="m6-1.62c0-.82-.78-1.47-1.78-1.58 .89-.18 1.51-.74 1.51-1.41 0-.78-.85-1.5-2.03-1.5l-3.34 0 0 .27 .22 0c.69 0 .7 .11 .7 .43l0 4.71c0 .32-.01 .42-.7 .42l-.22 0 0 .28 3.59 0c1.21 0 2.05-.8 2.05-1.62zm-1.12-2.99c0 .7-.6 1.31-1.44 1.31l-1.41 0 0-2.17c0-.31 .02-.37 .44-.37l1.17 0c.88 0 1.24 .7 1.24 1.23zm.23 2.97c0 .69-.53 1.36-1.45 1.36l-1.19 0c-.42 0-.44-.06-.44-.36l0-2.44 1.69 0c1.05 0 1.39 .89 1.39 1.44z"/>
</g>
<g id="glyph-0-37">
<path d="m3.88 0l0-.28-.3 0c-.83 0-.86-.11-.86-.44l0-5c0-.22 0-.25-.24-.25-.54 .58-1.37 .58-1.65 .58l0 .28c.17 0 .72 0 1.2-.23l0 4.62c0 .33-.03 .44-.86 .44l-.28 0 0 .28c.31-.03 1.11-.03 1.49-.03 .35 0 1.17 0 1.5 .03z"/>
</g>
<g id="glyph-0-38">
<path d="m1.86-.02c0-.62-.24-.95-.59-.95-.32 0-.49 .25-.49 .49 0 .25 .17 .48 .49 .48 .23 0 .35-.14 .35-.14 0 .3 0 1.03-.67 1.67-.04 .05-.04 .09-.04 .09 0 .05 .06 .11 .12 .11 .09 0 .83-.7 .83-1.75z"/>
</g>
<g id="glyph-0-39">
<path d="m4.14-1.58l-.25 0c-.01 .11-.09 .64-.2 .78-.07 .08-.67 .08-.86 .08l-1.6 0 .89-.84c1.47-1.27 2.02-1.74 2.02-2.66 0-1.03-.86-1.75-1.95-1.75-1.03 0-1.74 .83-1.74 1.64 0 .44 .39 .49 .47 .49 .2 0 .47-.14 .47-.47 0-.27-.19-.46-.47-.46-.04 0-.08 0-.11 0 .22-.64 .8-.92 1.28-.92 .91 0 1.22 .86 1.22 1.47 0 .92-.69 1.66-1.12 2.13l-1.63 1.76c-.11 .11-.11 .13-.11 .33l3.44 0z"/>
</g>
<g id="glyph-0-40">
<path d="m4.66-3.58l0-.28c-.28 .03-.57 .03-.69 .03-.25 0-.52-.01-.77-.03l0 .28c.41 .02 .41 .35 .41 .38 0 .09-.03 .18-.08 .25l-.91 2.14-1-2.35c-.04-.12-.04-.18-.04-.18 0-.24 .3-.24 .48-.24l0-.28-.98 .03c-.03 0-.55 0-.89-.03l0 .28c.4 0 .58 .02 .69 .25l1.4 3.33-.22 .53c-.2 .47-.45 1.08-1.04 1.08-.22 0-.38-.11-.4-.13 .07-.01 .32-.09 .32-.39 0-.23-.17-.37-.38-.37-.22 0-.39 .14-.39 .37 0 .41 .39 .74 .85 .74 .59 0 .96-.52 1.18-1l1.63-3.8c.09-.23 .25-.59 .83-.61z"/>
</g>
<g id="glyph-0-41">
<path d="m4.2-1.52c0-.78-.61-1.45-1.47-1.64 .83-.31 1.22-.96 1.22-1.57 0-.69-.75-1.24-1.68-1.24-.94 0-1.63 .53-1.63 1.22 0 .3 .19 .47 .45 .47 .27 0 .46-.19 .46-.45 0-.32-.22-.46-.53-.46 .23-.37 .78-.54 1.21-.54 .75 0 .89 .59 .89 1 0 .28-.04 .7-.28 1.04-.28 .41-.59 .42-.84 .44-.23 .02-.25 .02-.31 .02-.08 .01-.16 .01-.16 .12 0 .11 .08 .11 .22 .11l.42 0c.78 0 1.13 .62 1.13 1.48 0 1.14-.61 1.47-1.07 1.47-.17 0-1.04-.04-1.45-.72 .33 .05 .58-.17 .58-.48 0-.3-.22-.48-.48-.48-.22 0-.49 .14-.49 .51 0 .8 .83 1.42 1.86 1.42 1.13 0 1.95-.81 1.95-1.72z"/>
</g>
<g id="glyph-0-42">
<path d="m4.89 0l0-.28c-.45 0-.67 0-.69-.28l0-1.72c0-.74 0-1-.25-1.31-.2-.25-.54-.36-.98-.36-.85 0-1.22 .61-1.35 .86l-.01 0 0-.86-1.3 .09 0 .28c.61 0 .69 .06 .69 .5l0 2.39c0 .41-.09 .41-.69 .41l0 .28c.42-.02 .6-.03 1.02-.03 .44 0 .55 .01 1.03 .03l0-.28c-.59 0-.69 0-.69-.41l0-1.62c0-.96 .67-1.42 1.24-1.42 .51 0 .64 .43 .64 .98l0 2.06c0 .41-.1 .41-.69 .41l0 .28c.42-.02 .59-.03 1.02-.03 .43 0 .54 .01 1.01 .03zm-.81-5.67l-.16-.16c-.23 .24-.45 .41-.72 .41-.2 0-.37-.08-.65-.24-.11-.06-.32-.17-.53-.17-.33 0-.5 .17-.99 .71l.16 .15c.25-.23 .45-.41 .73-.41 .19 0 .36 .08 .64 .24 .11 .06 .33 .17 .53 .17 .33 0 .5-.17 .99-.7z"/>
</g>
<g id="glyph-0-43">
<path d="m1.75-.48c0-.27-.2-.49-.48-.49-.27 0-.49 .22-.49 .49 0 .26 .22 .48 .49 .48 .28 0 .48-.22 .48-.48z"/>
</g>
<g id="glyph-1-0">
<path d="m7.17-2.48c0-.21-.2-.21-.33-.21l-2.78 0 0-2.78c0-.14 0-.33-.2-.33-.19 0-.19 .19-.19 .33l0 2.78-2.78 0c-.14 0-.33 0-.33 .21 0 .2 .19 .2 .33 .2l2.78 0 0 2.78c0 .14 0 .33 .19 .33 .2 0 .2-.19 .2-.33l0-2.78 2.78 0c.13 0 .33 0 .33-.2z"/>
</g>
<g id="glyph-2-0">
<path d="m6.89-2.48c0-.21-.19-.21-.33-.21l-5.4 0c-.14 0-.33 0-.33 .21 0 .2 .19 .2 .33 .2l5.4 0c.14 0 .33 0 .33-.2z"/>
</g>
<g id="glyph-3-0">
<path d="m6.94-1.67c0-.77-.67-1.41-1.86-1.55 .98-.17 1.56-.72 1.56-1.39 0-.81-.81-1.53-2.3-1.53l-3.96 0 0 .44 .96 0 0 5.26-.96 0 0 .44 4.24 0c1.54 0 2.32-.8 2.32-1.67zm-1.6-2.94c0 .66-.45 1.23-1.34 1.23l-1.47 0 0-2.32 1.7 0c1.07 0 1.11 .92 1.11 1.09zm.24 2.92c0 .63-.36 1.25-1.33 1.25l-1.72 0 0-2.58 1.81 0c.14 0 .61 0 .93 .36 .26 .32 .31 .69 .31 .97z"/>
</g>
<g id="glyph-3-1">
<path d="m4.56 0l0-.44-1.29 0 0-5.14c0-.2 0-.3-.27-.3-.11 0-.12 0-.2 .07-.69 .51-1.66 .51-1.83 .51l-.19 0 0 .44 .19 0c.22 0 .7-.03 1.2-.19l0 4.61-1.28 0 0 .44c.34-.03 1.42-.03 1.83-.03 .42 0 1.47 0 1.84 .03z"/>
</g>
<g id="glyph-3-2">
<path d="m4.77-2.02l-.46 0c-.03 .13-.11 .77-.23 .83-.13 .05-.78 .05-.94 .05l-1.28 0c.48-.39 1.02-.81 1.47-1.13 .75-.53 1.44-1.01 1.44-1.89 0-1.04-.96-1.72-2.27-1.72-1.11 0-1.97 .54-1.97 1.36 0 .46 .36 .68 .67 .68 .28 0 .66-.21 .66-.68 0-.18-.08-.53-.47-.62 .31-.27 .72-.3 .89-.3 .74 0 1.2 .55 1.2 1.3 0 .64-.39 1.23-.86 1.72l-2 1.97c-.09 .09-.09 .11-.09 .28l0 .17 3.95 0z"/>
</g>
<g id="glyph-3-3">
<path d="m7.91-.88c0-.18-.14-.2-.24-.2-.2 0-.22 .13-.22 .2-.04 .44-.33 .63-.57 .63-.54 0-.61-.53-.72-1.31-.1-.66-.16-1.14-1.05-1.47 .77-.22 1.5-.69 1.5-1.44 0-.95-1.06-1.67-2.75-1.67l-3.48 0 0 .44 .96 0 0 5.26-.96 0 0 .44c.32-.03 1.21-.03 1.57-.03 .38 0 1.28 0 1.6 .03l0-.44-.96 0 0-2.45 1.1 0c.37 0 .61 .08 .87 .34 .25 .25 .25 .47 .25 1.07 0 .57 0 .98 .53 1.31 .39 .22 .96 .28 1.46 .28 .95 0 1.11-.78 1.11-.99zm-2.71-3.59c0 .5-.01 1.22-1.5 1.22l-1.11 0 0-2.45 1.13 0c1.45 0 1.48 .68 1.48 1.23z"/>
</g>
<g id="glyph-3-4">
<path d="m4.86-1.61c0-.7-.55-1.33-1.56-1.55 .9-.31 1.26-.92 1.26-1.46 0-.68-.67-1.26-2.01-1.26-1.1 0-1.82 .6-1.82 1.32 0 .4 .29 .65 .65 .65 .39 0 .64-.28 .64-.64 0-.29-.16-.56-.52-.64 .06-.06 .44-.33 1-.33 .78 0 .78 .58 .78 .88 0 .5-.19 1.28-.95 1.31l-.42 .03c-.14 .02-.14 .13-.14 .19 0 .17 .09 .17 .25 .17l.42 0c1.01 0 1.01 .88 1.01 1.33 0 .41 0 1.31-.97 1.31-.1 0-.71-.01-1.12-.31 .41-.11 .5-.47 .5-.67 0-.42-.3-.7-.72-.7-.37 0-.7 .25-.7 .71 0 .83 .89 1.38 2.09 1.38 1.64 0 2.33-.89 2.33-1.72z"/>
</g>
</g>
</defs>
<g fill="#000000">
<use xlink:href="#glyph-0-0" x="146.52" y="100.34"/>
<use xlink:href="#glyph-0-1" x="152.78" y="100.34"/>
<use xlink:href="#glyph-0-2" x="156.38" y="100.34"/>
<use xlink:href="#glyph-0-3" x="160.47" y="100.34"/>
<use xlink:href="#glyph-0-4" x="164.56" y="100.34"/>
<use xlink:href="#glyph-0-5" x="167.11" y="100.34"/>
<use xlink:href="#glyph-0-6" x="174.77" y="100.34"/>
<use xlink:href="#glyph-0-2" x="179.88" y="100.34"/>
<use xlink:href="#glyph-0-7" x="154.87" y="111.28"/>
<use xlink:href="#glyph-0-5" x="160.24" y="111.28"/>
<use xlink:href="#glyph-0-8" x="164.84" y="111.28"/>
<use xlink:href="#glyph-0-9" x="167.4" y="111.28"/>
<use xlink:href="#glyph-0-10" x="171.03" y="111.28"/>
<use xlink:href="#glyph-0-11" x="275.71" y="100.34"/>
<use xlink:href="#glyph-0-2" x="282.93" y="100.34"/>
<use xlink:href="#glyph-0-12" x="287.02" y="100.34"/>
<use xlink:href="#glyph-0-2" x="292.13" y="100.34"/>
<use xlink:href="#glyph-0-1" x="296.22" y="100.34"/>
<use xlink:href="#glyph-0-10" x="299.82" y="100.34"/>
<use xlink:href="#glyph-0-3" x="304.42" y="100.34"/>
<use xlink:href="#glyph-0-4" x="308.51" y="100.34"/>
<use xlink:href="#glyph-0-13" x="311.06" y="100.34"/>
<use xlink:href="#glyph-0-12" x="315.66" y="100.34"/>
<use xlink:href="#glyph-0-14" x="283.15" y="111.28"/>
<use xlink:href="#glyph-0-15" x="286.73" y="111.28"/>
<use xlink:href="#glyph-0-1" x="290.82" y="111.28"/>
<use xlink:href="#glyph-0-16" x="294.42" y="111.28"/>
<use xlink:href="#glyph-0-4" x="302.09" y="111.28"/>
<use xlink:href="#glyph-0-3" x="304.64" y="111.28"/>
<use xlink:href="#glyph-0-10" x="308.73" y="111.28"/>
<use xlink:href="#glyph-0-11" x="275.71" y="202.2"/>
<use xlink:href="#glyph-0-2" x="282.93" y="202.2"/>
<use xlink:href="#glyph-0-12" x="287.02" y="202.2"/>
<use xlink:href="#glyph-0-2" x="292.13" y="202.2"/>
<use xlink:href="#glyph-0-1" x="296.22" y="202.2"/>
<use xlink:href="#glyph-0-10" x="299.82" y="202.2"/>
<use xlink:href="#glyph-0-3" x="304.42" y="202.2"/>
<use xlink:href="#glyph-0-4" x="308.51" y="202.2"/>
<use xlink:href="#glyph-0-13" x="311.06" y="202.2"/>
<use xlink:href="#glyph-0-12" x="315.66" y="202.2"/>
<use xlink:href="#glyph-0-17" x="278.3" y="213.14"/>
<use xlink:href="#glyph-0-4" x="283.41" y="213.14"/>
<use xlink:href="#glyph-0-6" x="285.96" y="213.14"/>
<use xlink:href="#glyph-0-1" x="291.07" y="213.14"/>
<use xlink:href="#glyph-0-18" x="294.67" y="213.14"/>
<use xlink:href="#glyph-0-19" x="299.27" y="213.14"/>
<use xlink:href="#glyph-0-8" x="304.38" y="213.14"/>
<use xlink:href="#glyph-0-4" x="306.94" y="213.14"/>
<use xlink:href="#glyph-0-3" x="309.49" y="213.14"/>
<use xlink:href="#glyph-0-10" x="313.58" y="213.14"/>
<use xlink:href="#glyph-0-20" x="148.76" y="202.2"/>
<use xlink:href="#glyph-0-4" x="155.66" y="202.2"/>
<use xlink:href="#glyph-0-21" x="158.22" y="202.2"/>
<use xlink:href="#glyph-0-2" x="162.82" y="202.2"/>
<use xlink:href="#glyph-0-8" x="166.9" y="202.2"/>
<use xlink:href="#glyph-0-6" x="172.53" y="202.2"/>
<use xlink:href="#glyph-0-2" x="177.64" y="202.2"/>
<use xlink:href="#glyph-0-2" x="147.69" y="213.14"/>
<use xlink:href="#glyph-0-16" x="151.78" y="213.14"/>
<use xlink:href="#glyph-0-7" x="159.19" y="213.14"/>
<use xlink:href="#glyph-0-10" x="164.3" y="213.14"/>
<use xlink:href="#glyph-0-8" x="168.9" y="213.14"/>
<use xlink:href="#glyph-0-9" x="171.45" y="213.14"/>
<use xlink:href="#glyph-0-2" x="175.08" y="213.14"/>
<use xlink:href="#glyph-0-9" x="179.17" y="213.14"/>
<use xlink:href="#glyph-0-22" x="88.45" y="159.76"/>
<use xlink:href="#glyph-0-2" x="95.22" y="159.76"/>
<use xlink:href="#glyph-0-9" x="99.31" y="159.76"/>
<use xlink:href="#glyph-0-2" x="102.94" y="159.76"/>
<use xlink:href="#glyph-0-1" x="107.03" y="159.76"/>
<use xlink:href="#glyph-0-21" x="110.63" y="159.76"/>
<use xlink:href="#glyph-0-10" x="114.98" y="159.76"/>
<use xlink:href="#glyph-0-9" x="119.58" y="159.76"/>
<use xlink:href="#glyph-0-19" x="85.61" y="170.7"/>
<use xlink:href="#glyph-0-14" x="90.72" y="170.7"/>
<use xlink:href="#glyph-0-4" x="94.3" y="170.7"/>
<use xlink:href="#glyph-0-8" x="96.86" y="170.7"/>
<use xlink:href="#glyph-0-4" x="99.41" y="170.7"/>
<use xlink:href="#glyph-0-23" x="101.97" y="170.7"/>
<use xlink:href="#glyph-0-10" x="106.05" y="170.7"/>
<use xlink:href="#glyph-0-7" x="110.65" y="170.7"/>
<use xlink:href="#glyph-0-8" x="115.77" y="170.7"/>
<use xlink:href="#glyph-0-2" x="118.32" y="170.7"/>
<use xlink:href="#glyph-0-9" x="122.41" y="170.7"/>
<use xlink:href="#glyph-0-24" x="212.64" y="156.74"/>
<use xlink:href="#glyph-0-2" x="219.67" y="156.74"/>
<use xlink:href="#glyph-0-16" x="223.76" y="156.74"/>
<use xlink:href="#glyph-0-10" x="231.43" y="156.74"/>
<use xlink:href="#glyph-0-12" x="236.02" y="156.74"/>
<use xlink:href="#glyph-0-6" x="241.14" y="156.74"/>
<use xlink:href="#glyph-0-10" x="246.25" y="156.74"/>
<use xlink:href="#glyph-0-25" x="110.58" y="20.43"/>
<use xlink:href="#glyph-0-12" x="116.84" y="20.43"/>
<use xlink:href="#glyph-0-2" x="121.95" y="20.43"/>
<use xlink:href="#glyph-0-1" x="126.05" y="20.43"/>
<use xlink:href="#glyph-0-26" x="129.64" y="20.43"/>
<use xlink:href="#glyph-0-27" x="134.24" y="20.43"/>
<use xlink:href="#glyph-0-10" x="136.8" y="20.43"/>
<use xlink:href="#glyph-0-14" x="144.47" y="20.43"/>
<use xlink:href="#glyph-0-15" x="148.05" y="20.43"/>
<use xlink:href="#glyph-0-1" x="152.13" y="20.43"/>
<use xlink:href="#glyph-0-16" x="155.73" y="20.43"/>
<use xlink:href="#glyph-0-4" x="163.4" y="20.43"/>
<use xlink:href="#glyph-0-3" x="165.96" y="20.43"/>
<use xlink:href="#glyph-0-10" x="170.04" y="20.43"/>
<use xlink:href="#glyph-0-10" x="103.23" y="31.37"/>
<use xlink:href="#glyph-0-8" x="110.9" y="31.37"/>
<use xlink:href="#glyph-0-27" x="113.46" y="31.37"/>
<use xlink:href="#glyph-0-28" x="116.01" y="31.37"/>
<use xlink:href="#glyph-0-19" x="120.87" y="31.37"/>
<use xlink:href="#glyph-0-4" x="125.98" y="31.37"/>
<use xlink:href="#glyph-0-6" x="128.53" y="31.37"/>
<use xlink:href="#glyph-0-5" x="133.65" y="31.37"/>
<use xlink:href="#glyph-0-9" x="138.25" y="31.37"/>
<use xlink:href="#glyph-0-8" x="144.93" y="31.37"/>
<use xlink:href="#glyph-0-4" x="147.49" y="31.37"/>
<use xlink:href="#glyph-0-28" x="150.05" y="31.37"/>
<use xlink:href="#glyph-0-19" x="154.9" y="31.37"/>
<use xlink:href="#glyph-0-4" x="160.01" y="31.37"/>
<use xlink:href="#glyph-0-6" x="162.57" y="31.37"/>
<use xlink:href="#glyph-0-10" x="167.68" y="31.37"/>
<use xlink:href="#glyph-0-6" x="172.28" y="31.37"/>
<use xlink:href="#glyph-0-10" x="177.39" y="31.37"/>
<use xlink:href="#glyph-0-10" x="103.7" y="42.31"/>
<use xlink:href="#glyph-0-8" x="108.3" y="42.31"/>
<use xlink:href="#glyph-0-29" x="113.93" y="42.31"/>
<use xlink:href="#glyph-0-1" x="119.04" y="42.31"/>
<use xlink:href="#glyph-0-2" x="122.64" y="42.31"/>
<use xlink:href="#glyph-0-3" x="126.73" y="42.31"/>
<use xlink:href="#glyph-0-4" x="130.82" y="42.31"/>
<use xlink:href="#glyph-0-5" x="133.37" y="42.31"/>
<use xlink:href="#glyph-0-6" x="141.03" y="42.31"/>
<use xlink:href="#glyph-0-2" x="146.14" y="42.31"/>
<use xlink:href="#glyph-0-2" x="153.31" y="42.31"/>
<use xlink:href="#glyph-0-9" x="157.4" y="42.31"/>
<use xlink:href="#glyph-0-3" x="161.03" y="42.31"/>
<use xlink:href="#glyph-0-10" x="165.12" y="42.31"/>
<use xlink:href="#glyph-0-9" x="169.72" y="42.31"/>
<use xlink:href="#glyph-0-2" x="173.34" y="42.31"/>
<use xlink:href="#glyph-0-23" x="177.44" y="42.31"/>
<use xlink:href="#glyph-0-0" x="230.9" y="20.43"/>
<use xlink:href="#glyph-0-15" x="236.9" y="20.43"/>
<use xlink:href="#glyph-0-1" x="240.99" y="20.43"/>
<use xlink:href="#glyph-0-6" x="244.59" y="20.43"/>
<use xlink:href="#glyph-0-4" x="249.7" y="20.43"/>
<use xlink:href="#glyph-0-6" x="252.25" y="20.43"/>
<use xlink:href="#glyph-0-10" x="257.36" y="20.43"/>
<use xlink:href="#glyph-0-9" x="261.96" y="20.43"/>
<use xlink:href="#glyph-0-6" x="268.66" y="20.43"/>
<use xlink:href="#glyph-0-2" x="273.77" y="20.43"/>
<use xlink:href="#glyph-0-8" x="230.55" y="31.37"/>
<use xlink:href="#glyph-0-10" x="233.11" y="31.37"/>
<use xlink:href="#glyph-0-9" x="237.71" y="31.37"/>
<use xlink:href="#glyph-0-14" x="244.41" y="31.37"/>
<use xlink:href="#glyph-0-15" x="247.98" y="31.37"/>
<use xlink:href="#glyph-0-1" x="252.07" y="31.37"/>
<use xlink:href="#glyph-0-16" x="255.67" y="31.37"/>
<use xlink:href="#glyph-0-4" x="263.34" y="31.37"/>
<use xlink:href="#glyph-0-3" x="265.9" y="31.37"/>
<use xlink:href="#glyph-0-10" x="269.98" y="31.37"/>
<use xlink:href="#glyph-0-9" x="274.57" y="31.37"/>
<use xlink:href="#glyph-0-10" x="235.06" y="42.31"/>
<use xlink:href="#glyph-0-8" x="242.73" y="42.31"/>
<use xlink:href="#glyph-0-27" x="245.29" y="42.31"/>
<use xlink:href="#glyph-0-28" x="247.84" y="42.31"/>
<use xlink:href="#glyph-0-19" x="252.7" y="42.31"/>
<use xlink:href="#glyph-0-4" x="257.81" y="42.31"/>
<use xlink:href="#glyph-0-6" x="260.36" y="42.31"/>
<use xlink:href="#glyph-0-5" x="265.47" y="42.31"/>
<use xlink:href="#glyph-0-9" x="270.07" y="42.31"/>
<use xlink:href="#glyph-0-24" x="325.61" y="26.77"/>
<use xlink:href="#glyph-0-4" x="332.64" y="26.77"/>
<use xlink:href="#glyph-0-9" x="335.19" y="26.77"/>
<use xlink:href="#glyph-0-29" x="338.82" y="26.77"/>
<use xlink:href="#glyph-0-5" x="344.19" y="26.77"/>
<use xlink:href="#glyph-0-12" x="348.79" y="26.77"/>
<use xlink:href="#glyph-0-4" x="353.9" y="26.77"/>
<use xlink:href="#glyph-0-7" x="356.46" y="26.77"/>
<use xlink:href="#glyph-0-4" x="361.57" y="26.77"/>
<use xlink:href="#glyph-0-8" x="364.12" y="26.77"/>
<use xlink:href="#glyph-0-4" x="366.68" y="26.77"/>
<use xlink:href="#glyph-0-6" x="369.23" y="26.77"/>
<use xlink:href="#glyph-0-10" x="374.35" y="26.77"/>
<use xlink:href="#glyph-0-6" x="378.94" y="26.77"/>
<use xlink:href="#glyph-0-14" x="339.74" y="37.71"/>
<use xlink:href="#glyph-0-15" x="343.32" y="37.71"/>
<use xlink:href="#glyph-0-1" x="347.41" y="37.71"/>
<use xlink:href="#glyph-0-16" x="351.01" y="37.71"/>
<use xlink:href="#glyph-0-4" x="358.68" y="37.71"/>
<use xlink:href="#glyph-0-3" x="361.23" y="37.71"/>
<use xlink:href="#glyph-0-10" x="365.32" y="37.71"/>
<use xlink:href="#glyph-0-30" x="25.4" y="51.36"/>
<use xlink:href="#glyph-0-12" x="28.72" y="51.36"/>
<use xlink:href="#glyph-0-21" x="33.57" y="51.36"/>
<use xlink:href="#glyph-0-2" x="38.17" y="51.36"/>
<use xlink:href="#glyph-0-1" x="42.26" y="51.36"/>
<use xlink:href="#glyph-0-9" x="45.86" y="51.36"/>
<use xlink:href="#glyph-0-4" x="49.49" y="51.36"/>
<use xlink:href="#glyph-0-13" x="52.05" y="51.36"/>
<use xlink:href="#glyph-0-12" x="56.64" y="51.36"/>
<use xlink:href="#glyph-0-2" x="22.98" y="62.3"/>
<use xlink:href="#glyph-0-12" x="27.07" y="62.3"/>
<use xlink:href="#glyph-0-29" x="35.25" y="62.3"/>
<use xlink:href="#glyph-0-8" x="40.36" y="62.3"/>
<use xlink:href="#glyph-0-10" x="42.92" y="62.3"/>
<use xlink:href="#glyph-0-12" x="47.52" y="62.3"/>
<use xlink:href="#glyph-0-14" x="52.37" y="62.3"/>
<use xlink:href="#glyph-0-10" x="55.94" y="62.3"/>
<use xlink:href="#glyph-0-9" x="60.54" y="62.3"/>
<use xlink:href="#glyph-0-31" x="22.37" y="108.83"/>
<use xlink:href="#glyph-0-10" x="29.01" y="108.83"/>
<use xlink:href="#glyph-0-29" x="33.61" y="108.83"/>
<use xlink:href="#glyph-0-10" x="38.72" y="108.83"/>
<use xlink:href="#glyph-0-3" x="43.32" y="108.83"/>
<use xlink:href="#glyph-0-4" x="47.41" y="108.83"/>
<use xlink:href="#glyph-0-6" x="49.96" y="108.83"/>
<use xlink:href="#glyph-0-10" x="55.08" y="108.83"/>
<use xlink:href="#glyph-0-6" x="59.67" y="108.83"/>
<use xlink:href="#glyph-0-4" x="25.41" y="119.76"/>
<use xlink:href="#glyph-0-12" x="27.96" y="119.76"/>
<use xlink:href="#glyph-0-9" x="33.07" y="119.76"/>
<use xlink:href="#glyph-0-14" x="36.7" y="119.76"/>
<use xlink:href="#glyph-0-10" x="40.28" y="119.76"/>
<use xlink:href="#glyph-0-8" x="44.88" y="119.76"/>
<use xlink:href="#glyph-0-10" x="47.43" y="119.76"/>
<use xlink:href="#glyph-0-6" x="52.03" y="119.76"/>
<use xlink:href="#glyph-0-10" x="57.14" y="119.76"/>
<use xlink:href="#glyph-0-31" x="16.71" y="173.23"/>
<use xlink:href="#glyph-0-10" x="23.35" y="173.23"/>
<use xlink:href="#glyph-0-29" x="27.95" y="173.23"/>
<use xlink:href="#glyph-0-10" x="33.06" y="173.23"/>
<use xlink:href="#glyph-0-3" x="37.66" y="173.23"/>
<use xlink:href="#glyph-0-4" x="41.75" y="173.23"/>
<use xlink:href="#glyph-0-6" x="44.3" y="173.23"/>
<use xlink:href="#glyph-0-10" x="49.42" y="173.23"/>
<use xlink:href="#glyph-0-6" x="54.01" y="173.23"/>
<use xlink:href="#glyph-0-17" x="17.97" y="184.17"/>
<use xlink:href="#glyph-0-4" x="23.09" y="184.17"/>
<use xlink:href="#glyph-0-6" x="25.64" y="184.17"/>
<use xlink:href="#glyph-0-1" x="30.75" y="184.17"/>
<use xlink:href="#glyph-0-18" x="34.35" y="184.17"/>
<use xlink:href="#glyph-0-19" x="38.95" y="184.17"/>
<use xlink:href="#glyph-0-8" x="44.06" y="184.17"/>
<use xlink:href="#glyph-0-4" x="46.61" y="184.17"/>
<use xlink:href="#glyph-0-3" x="49.17" y="184.17"/>
<use xlink:href="#glyph-0-10" x="53.26" y="184.17"/>
<use xlink:href="#glyph-0-6" x="17.57" y="195.1"/>
<use xlink:href="#glyph-0-4" x="22.68" y="195.1"/>
<use xlink:href="#glyph-0-9" x="25.24" y="195.1"/>
<use xlink:href="#glyph-0-29" x="28.87" y="195.1"/>
<use xlink:href="#glyph-0-5" x="34.24" y="195.1"/>
<use xlink:href="#glyph-0-12" x="38.84" y="195.1"/>
<use xlink:href="#glyph-0-4" x="43.95" y="195.1"/>
<use xlink:href="#glyph-0-7" x="46.5" y="195.1"/>
<use xlink:href="#glyph-0-8" x="51.62" y="195.1"/>
<use xlink:href="#glyph-0-2" x="54.17" y="195.1"/>
<use xlink:href="#glyph-0-32" x="40.37" y="237.87"/>
<use xlink:href="#glyph-0-8" x="46.12" y="237.87"/>
<use xlink:href="#glyph-0-19" x="48.67" y="237.87"/>
<use xlink:href="#glyph-0-21" x="53.78" y="237.87"/>
<use xlink:href="#glyph-0-4" x="58.64" y="237.87"/>
<use xlink:href="#glyph-0-10" x="61.19" y="237.87"/>
<use xlink:href="#glyph-0-9" x="65.79" y="237.87"/>
<use xlink:href="#glyph-0-33" x="19.43" y="248.81"/>
<use xlink:href="#glyph-0-10" x="23.01" y="248.81"/>
<use xlink:href="#glyph-0-29" x="27.61" y="248.81"/>
<use xlink:href="#glyph-0-5" x="32.97" y="248.81"/>
<use xlink:href="#glyph-0-1" x="37.57" y="248.81"/>
<use xlink:href="#glyph-0-14" x="41.17" y="248.81"/>
<use xlink:href="#glyph-0-2" x="44.74" y="248.81"/>
<use xlink:href="#glyph-0-9" x="48.84" y="248.81"/>
<use xlink:href="#glyph-0-17" x="55.53" y="248.81"/>
<use xlink:href="#glyph-0-27" x="60.64" y="248.81"/>
<use xlink:href="#glyph-0-6" x="63.2" y="248.81"/>
<use xlink:href="#glyph-0-1" x="68.31" y="248.81"/>
<use xlink:href="#glyph-0-4" x="71.91" y="248.81"/>
<use xlink:href="#glyph-0-3" x="74.46" y="248.81"/>
<use xlink:href="#glyph-0-5" x="78.55" y="248.81"/>
<use xlink:href="#glyph-0-9" x="83.15" y="248.81"/>
<use xlink:href="#glyph-0-34" x="86.78" y="248.81"/>
</g>
<path fill="none" stroke-width=".598" stroke-linecap="butt" stroke-linejoin="miter" stroke="#000000" stroke-miterlimit="10" d="m-64.19-39.21c-13.52 4.67-22.1 11.64-27.02 19.85" transform="matrix(0.998223, 0, 0, -0.998223, 207.692549, 159.315385)"/>
<path fill-rule="nonzero" fill="#000000" stroke-width=".598" stroke-linecap="butt" stroke-linejoin="miter" stroke="#000000" stroke-miterlimit="10" d="m6.52 0l-5.55 2.09 1.82-2.09-1.82-2.09z" transform="matrix(-0.513276, -0.856126, -0.856126, 0.513276, 117.998873, 180.901517)"/>
<g fill="#000000">
<use xlink:href="#glyph-1-0" x="106.94" y="189.87"/>
</g>
<path fill="none" stroke-width=".598" stroke-linecap="butt" stroke-linejoin="miter" stroke="#000000" stroke-miterlimit="10" d="m-96.33 9.79c6.42 16.98 15.28 27.28 26.99 33.85" transform="matrix(0.998223, 0, 0, -0.998223, 207.692549, 159.315385)"/>
<path fill-rule="nonzero" fill="#000000" stroke-width=".598" stroke-linecap="butt" stroke-linejoin="miter" stroke="#000000" stroke-miterlimit="10" d="m6.52 0l-5.55 2.09 1.82-2.09-1.83-2.09z" transform="matrix(0.87057, -0.488361, -0.488361, -0.87057, 136.17797, 117.040982)"/>
<g fill="#000000">
<use xlink:href="#glyph-2-0" x="123.44" y="120.98"/>
</g>
<path fill="none" stroke-width=".598" stroke-linecap="butt" stroke-linejoin="miter" stroke="#000000" stroke-miterlimit="10" d="m-19.57 56.69l78.8 0" transform="matrix(0.998223, 0, 0, -0.998223, 207.692549, 159.315385)"/>
<path fill-rule="nonzero" fill="#000000" stroke-width=".598" stroke-linecap="butt" stroke-linejoin="miter" stroke="#000000" stroke-miterlimit="10" d="m6.52 0l-5.56 2.09 1.83-2.09-1.83-2.09z" transform="matrix(0.998223, 0, 0, -0.998223, 264.174549, 102.722512)"/>
<g fill="#000000">
<use xlink:href="#glyph-1-0" x="256.55" y="98.29"/>
</g>
<path fill="none" stroke-width=".598" stroke-linecap="butt" stroke-linejoin="miter" stroke="#000000" stroke-miterlimit="10" d="m90.71 43.94l0-71.81" transform="matrix(0.998223, 0, 0, -0.998223, 207.692549, 159.315385)"/>
<path fill-rule="nonzero" fill="#000000" stroke-width=".598" stroke-linecap="butt" stroke-linejoin="miter" stroke="#000000" stroke-miterlimit="10" d="m6.52 0l-5.56 2.09 1.83-2.09-1.83-2.09z" transform="matrix(0, 0.998223, 0.998223, 0, 298.241053, 184.503085)"/>
<g fill="#000000">
<use xlink:href="#glyph-2-0" x="301.85" y="184.28"/>
</g>
<path fill="none" stroke-width=".598" stroke-linecap="butt" stroke-linejoin="miter" stroke="#000000" stroke-miterlimit="10" d="m63.95-45.36l-79.97 0" transform="matrix(0.998223, 0, 0, -0.998223, 207.692549, 159.315385)"/>
<path fill-rule="nonzero" fill="#000000" stroke-width=".598" stroke-linecap="butt" stroke-linejoin="miter" stroke="#000000" stroke-miterlimit="10" d="m6.52 0l-5.55 2.09 1.82-2.09-1.82-2.09z" transform="matrix(-0.998223, 0, 0, 0.998223, 194.340329, 204.589847)"/>
<g fill="#000000">
<use xlink:href="#glyph-2-0" x="194.41" y="214"/>
<use xlink:href="#glyph-3-0" x="272.02" y="134.15"/>
<use xlink:href="#glyph-3-1" x="279.55" y="134.15"/>
</g>
<path fill="none" stroke-width=".598" stroke-linecap="butt" stroke-linejoin="miter" stroke="#000000" stroke-miterlimit="10" d="m66.17 41.24c7.13 2.6 15-1.08 17.59-8.2 2.6-7.12-1.08-15-8.2-17.59-6.68-2.44-14.13 .65-15.86 4.37" transform="matrix(0.998223, 0, 0, -0.998223, 207.692549, 159.315385)"/>
<path fill-rule="nonzero" fill="#000000" stroke-width=".598" stroke-linecap="butt" stroke-linejoin="miter" stroke="#000000" stroke-miterlimit="10" d="m3.97 0l-3 1.14 .99-1.14-.99-1.14z" transform="matrix(-0.421869, -0.904689, -0.904689, 0.421869, 268.048423, 141.169299)"/>
<path fill="none" stroke-width=".598" stroke-linecap="butt" stroke-linejoin="miter" stroke="#000000" stroke-miterlimit="10" d="m-26.89 44.72l38.76-29.68" transform="matrix(0.998223, 0, 0, -0.998223, 207.692549, 159.315385)"/>
<path fill-rule="nonzero" fill="#000000" stroke-width=".598" stroke-linecap="butt" stroke-linejoin="miter" stroke="#000000" stroke-miterlimit="10" d="m6.52 0l-5.56 2.09 1.83-2.09-1.83-2.09z" transform="matrix(0.792469, 0.60691, 0.60691, -0.792469, 217.446924, 142.703018)"/>
<path fill="none" stroke-width=".797" stroke-linecap="butt" stroke-linejoin="miter" stroke="#000000" stroke-miterlimit="10" d="m-5.53 26.48l1.81 2.37" transform="matrix(0.998223, 0, 0, -0.998223, 207.692549, 159.315385)"/>
<path fill="none" stroke-width=".797" stroke-linecap="butt" stroke-linejoin="miter" stroke="#000000" stroke-miterlimit="10" d="m-3 24.55l1.81 2.37" transform="matrix(0.998223, 0, 0, -0.998223, 207.692549, 159.315385)"/>
<g fill="#000000">
<use xlink:href="#glyph-2-0" x="219.36" y="136.96"/>
</g>
<path fill="none" stroke-width=".598" stroke-linecap="butt" stroke-linejoin="miter" stroke="#000000" stroke-miterlimit="10" d="m32.57-.82l38.76-29.69" transform="matrix(0.998223, 0, 0, -0.998223, 207.692549, 159.315385)"/>
<path fill-rule="nonzero" fill="#000000" stroke-width=".598" stroke-linecap="butt" stroke-linejoin="miter" stroke="#000000" stroke-miterlimit="10" d="m6.52 0l-5.56 2.09 1.83-2.09-1.83-2.09z" transform="matrix(0.792469, 0.60689, 0.60689, -0.792469, 276.805852, 188.167043)"/>
<g fill="#000000">
<use xlink:href="#glyph-1-0" x="278.72" y="182.43"/>
<use xlink:href="#glyph-3-0" x="184.3" y="176.59"/>
<use xlink:href="#glyph-3-2" x="191.83" y="176.59"/>
</g>
<path fill="none" stroke-width=".598" stroke-linecap="butt" stroke-linejoin="miter" stroke="#000000" stroke-miterlimit="10" d="m-21.7-1.28c7.12 2.6 15-1.08 17.59-8.2 2.59-7.12-1.08-15-8.2-17.59-6.69-2.44-14.13 .65-15.87 4.37" transform="matrix(0.998223, 0, 0, -0.998223, 207.692549, 159.315385)"/>
<path fill-rule="nonzero" fill="#000000" stroke-width=".598" stroke-linecap="butt" stroke-linejoin="miter" stroke="#000000" stroke-miterlimit="10" d="m3.97 0l-3 1.14 .99-1.14-.99-1.14z" transform="matrix(-0.421869, -0.904689, -0.904689, 0.421869, 180.329331, 183.613928)"/>
<path fill="none" stroke-width=".598" stroke-linecap="butt" stroke-linejoin="miter" stroke="#000000" stroke-miterlimit="10" d="m-46.42 69.36l-11.54 37.5" transform="matrix(0.998223, 0, 0, -0.998223, 207.692549, 159.315385)"/>
<path fill-rule="nonzero" fill="#000000" stroke-width=".598" stroke-linecap="butt" stroke-linejoin="miter" stroke="#000000" stroke-miterlimit="10" d="m6.52 0l-5.56 2.09 1.83-2.09-1.82-2.09z" transform="matrix(-0.293667, -0.954002, -0.954002, 0.293667, 150.610317, 55.164356)"/>
<g fill="#000000">
<use xlink:href="#glyph-1-0" x="155" y="60.16"/>
</g>
<path fill="none" stroke-width=".598" stroke-linecap="butt" stroke-linejoin="miter" stroke="#000000" stroke-miterlimit="10" d="m-21.57 130.39l35.56 0" transform="matrix(0.998223, 0, 0, -0.998223, 207.692549, 159.315385)"/>
<path fill-rule="nonzero" fill="#000000" stroke-width=".598" stroke-linecap="butt" stroke-linejoin="miter" stroke="#000000" stroke-miterlimit="10" d="m6.52 0l-5.55 2.09 1.82-2.09-1.82-2.09z" transform="matrix(0.998223, 0, 0, -0.998223, 219.020073, 29.151624)"/>
<g fill="#000000">
<use xlink:href="#glyph-1-0" x="213.45" y="24.72"/>
</g>
<path fill="none" stroke-width=".598" stroke-linecap="butt" stroke-linejoin="miter" stroke="#000000" stroke-miterlimit="10" d="m74.83 130.39l34.39 0" transform="matrix(0.998223, 0, 0, -0.998223, 207.692549, 159.315385)"/>
<path fill-rule="nonzero" fill="#000000" stroke-width=".598" stroke-linecap="butt" stroke-linejoin="miter" stroke="#000000" stroke-miterlimit="10" d="m6.52 0l-5.56 2.09 1.83-2.09-1.83-2.09z" transform="matrix(0.998223, 0, 0, -0.998223, 314.079767, 29.151624)"/>
<g fill="#000000">
<use xlink:href="#glyph-2-0" x="308.8" y="24.71"/>
</g>
<path fill="none" stroke-width=".598" stroke-linecap="butt" stroke-linejoin="miter" stroke="#000000" stroke-miterlimit="10" d="m142.21 117.78c-8.41-21.7-17.76-34.49-32.21-46.11" transform="matrix(0.998223, 0, 0, -0.998223, 207.692549, 159.315385)"/>
<path fill-rule="nonzero" fill="#000000" stroke-width=".598" stroke-linecap="butt" stroke-linejoin="miter" stroke="#000000" stroke-miterlimit="10" d="m6.52 0l-5.55 2.09 1.82-2.09-1.82-2.09z" transform="matrix(-0.777745, 0.625676, 0.625676, 0.777745, 319.551766, 86.123871)"/>
<g fill="#000000">
<use xlink:href="#glyph-1-0" x="326.51" y="85.24"/>
<use xlink:href="#glyph-3-3" x="237.86" y="73.31"/>
<use xlink:href="#glyph-3-1" x="245.8" y="73.31"/>
</g>
<path fill="none" stroke-width=".598" stroke-linecap="butt" stroke-linejoin="miter" stroke="#000000" stroke-miterlimit="10" d="m32.16 102.19c7.12 2.59 15-1.08 17.59-8.2 2.59-7.13-1.08-15-8.2-17.6-6.69-2.43-14.13 .65-15.87 4.38" transform="matrix(0.998223, 0, 0, -0.998223, 207.692549, 159.315385)"/>
<path fill-rule="nonzero" fill="#000000" stroke-width=".598" stroke-linecap="butt" stroke-linejoin="miter" stroke="#000000" stroke-miterlimit="10" d="m3.97 0l-3 1.14 .99-1.14-1-1.14z" transform="matrix(-0.421869, -0.904689, -0.904689, 0.421869, 234.092791, 80.332132)"/>
<path fill="none" stroke-width=".598" stroke-linecap="butt" stroke-linejoin="miter" stroke="#000000" stroke-miterlimit="10" d="m-54.01 68.95c-23.76 26.93-49.68 38.24-80.86 37.47" transform="matrix(0.998223, 0, 0, -0.998223, 207.692549, 159.315385)"/>
<path fill-rule="nonzero" fill="#000000" stroke-width=".598" stroke-linecap="butt" stroke-linejoin="miter" stroke="#000000" stroke-miterlimit="10" d="m6.52 0l-5.55 2.09 1.82-2.09-1.83-2.09z" transform="matrix(-0.997874, 0.0247559, 0.0247559, 0.997874, 75.701601, 53.02194)"/>
<path fill="none" stroke-width=".797" stroke-linecap="butt" stroke-linejoin="miter" stroke="#000000" stroke-miterlimit="10" d="m-94.99 100.6l-1.04-2.81" transform="matrix(0.998223, 0, 0, -0.998223, 207.692549, 159.315385)"/>
<path fill="none" stroke-width=".797" stroke-linecap="butt" stroke-linejoin="miter" stroke="#000000" stroke-miterlimit="10" d="m-97.97 101.71l-1.05-2.8" transform="matrix(0.998223, 0, 0, -0.998223, 207.692549, 159.315385)"/>
<g fill="#000000">
<use xlink:href="#glyph-1-0" x="78.75" y="49.24"/>
</g>
<path fill="none" stroke-width=".598" stroke-linecap="butt" stroke-linejoin="miter" stroke="#000000" stroke-miterlimit="10" d="m-164.41 91.26l0-25.59" transform="matrix(0.998223, 0, 0, -0.998223, 207.692549, 159.315385)"/>
<path fill-rule="nonzero" fill="#000000" stroke-width=".598" stroke-linecap="butt" stroke-linejoin="miter" stroke="#000000" stroke-miterlimit="10" d="m6.52 0l-5.55 2.09 1.82-2.09-1.82-2.09z" transform="matrix(0, 0.998223, 0.998223, 0, 43.573156, 91.124798)"/>
<path fill="none" stroke-width=".797" stroke-linecap="butt" stroke-linejoin="miter" stroke="#000000" stroke-miterlimit="10" d="m-165.91 75.98l2.99 0" transform="matrix(0.998223, 0, 0, -0.998223, 207.692549, 159.315385)"/>
<path fill="none" stroke-width=".797" stroke-linecap="butt" stroke-linejoin="miter" stroke="#000000" stroke-miterlimit="10" d="m-165.91 72.79l2.99 0" transform="matrix(0.998223, 0, 0, -0.998223, 207.692549, 159.315385)"/>
<g fill="#000000">
<use xlink:href="#glyph-1-0" x="32.23" y="96.11"/>
</g>
<path fill="none" stroke-width=".598" stroke-linecap="butt" stroke-linejoin="miter" stroke="#000000" stroke-miterlimit="10" d="m-138.99 49.96l68.81 4.8" transform="matrix(0.998223, 0, 0, -0.998223, 207.692549, 159.315385)"/>
<path fill-rule="nonzero" fill="#000000" stroke-width=".598" stroke-linecap="butt" stroke-linejoin="miter" stroke="#000000" stroke-miterlimit="10" d="m6.52 0l-5.56 2.09 1.83-2.09-1.82-2.09z" transform="matrix(0.995767, -0.0695162, -0.0695162, -0.995767, 135.005727, 104.830849)"/>
<g fill="#000000">
<use xlink:href="#glyph-2-0" x="128.86" y="100.55"/>
<use xlink:href="#glyph-3-0" x="85.27" y="84.63"/>
<use xlink:href="#glyph-3-4" x="92.79" y="84.63"/>
</g>
<path fill="none" stroke-width=".598" stroke-linecap="butt" stroke-linejoin="miter" stroke="#000000" stroke-miterlimit="10" d="m-111.53 90.85c-7.12 2.6-15-1.08-17.59-8.2-2.59-7.13 1.08-15 8.2-17.59 6.69-2.44 14.13 .64 15.87 4.37" transform="matrix(0.998223, 0, 0, -0.998223, 207.692549, 159.315385)"/>
<path fill-rule="nonzero" fill="#000000" stroke-width=".598" stroke-linecap="butt" stroke-linejoin="miter" stroke="#000000" stroke-miterlimit="10" d="m3.97 0l-3 1.14 .99-1.14-1-1.14z" transform="matrix(0.421869, -0.904689, -0.904689, -0.421869, 102.062203, 91.650533)"/>
<path fill="none" stroke-width=".598" stroke-linecap="butt" stroke-linejoin="miter" stroke="#000000" stroke-miterlimit="10" d="m-113.39-77.62c20.66 3.58 33.49 8.72 46.97 17.76" transform="matrix(0.998223, 0, 0, -0.998223, 207.692549, 159.315385)"/>
<path fill-rule="nonzero" fill="#000000" stroke-width=".598" stroke-linecap="butt" stroke-linejoin="miter" stroke="#000000" stroke-miterlimit="10" d="m6.52 0l-5.55 2.09 1.82-2.09-1.82-2.09z" transform="matrix(0.829154, -0.555741, -0.555741, -0.829154, 139.204572, 220.533763)"/>
<g fill="#000000">
<use xlink:href="#glyph-1-0" x="134.9" y="229.99"/>
</g>
<path fill="none" stroke-width=".598" stroke-linecap="butt" stroke-linejoin="miter" stroke="#000000" stroke-miterlimit="10" d="m-144.83-10.28c6.32 2.91 11.42 4.25 13.64 4.43" transform="matrix(0.998223, 0, 0, -0.998223, 207.692549, 159.315385)"/>
<path fill-rule="nonzero" fill="#000000" stroke-width=".598" stroke-linecap="butt" stroke-linejoin="miter" stroke="#000000" stroke-miterlimit="10" d="m6.52 0l-5.55 2.09 1.82-2.09-1.82-2.09z" transform="matrix(0.994769, -0.0822835, -0.0822835, -0.994769, 74.109206, 165.370605)"/>
<g fill="#000000">
<use xlink:href="#glyph-1-0" x="73.49" y="160.86"/>
<use xlink:href="#glyph-0-32" x="10.3" y="273.69"/>
<use xlink:href="#glyph-0-5" x="16.05" y="273.69"/>
<use xlink:href="#glyph-0-9" x="20.65" y="273.69"/>
<use xlink:href="#glyph-0-3" x="27.35" y="273.69"/>
<use xlink:href="#glyph-0-19" x="31.43" y="273.69"/>
<use xlink:href="#glyph-0-10" x="36.54" y="273.69"/>
<use xlink:href="#glyph-0-14" x="41.14" y="273.69"/>
<use xlink:href="#glyph-0-1" x="44.72" y="273.69"/>
<use xlink:href="#glyph-0-5" x="48.32" y="273.69"/>
<use xlink:href="#glyph-0-8" x="55.99" y="273.69"/>
<use xlink:href="#glyph-0-10" x="58.54" y="273.69"/>
<use xlink:href="#glyph-0-23" x="63.14" y="273.69"/>
<use xlink:href="#glyph-0-5" x="67.23" y="273.69"/>
<use xlink:href="#glyph-0-9" x="71.83" y="273.69"/>
<use xlink:href="#glyph-0-6" x="78.53" y="273.69"/>
<use xlink:href="#glyph-0-2" x="83.64" y="273.69"/>
<use xlink:href="#glyph-0-8" x="90.79" y="273.69"/>
<use xlink:href="#glyph-0-10" x="93.35" y="273.69"/>
<use xlink:href="#glyph-0-9" x="101.02" y="273.69"/>
<use xlink:href="#glyph-0-2" x="104.65" y="273.69"/>
<use xlink:href="#glyph-0-16" x="108.74" y="273.69"/>
<use xlink:href="#glyph-0-10" x="116.4" y="273.69"/>
<use xlink:href="#glyph-0-12" x="121" y="273.69"/>
<use xlink:href="#glyph-0-10" x="126.11" y="273.69"/>
<use xlink:href="#glyph-0-35" x="130.71" y="273.69"/>
<use xlink:href="#glyph-0-36" x="136.33" y="273.69"/>
<use xlink:href="#glyph-0-37" x="142.84" y="273.69"/>
<use xlink:href="#glyph-0-10" x="150.51" y="273.69"/>
<use xlink:href="#glyph-0-17" x="155.11" y="273.69"/>
<use xlink:href="#glyph-0-5" x="160.22" y="273.69"/>
<use xlink:href="#glyph-0-1" x="164.82" y="273.69"/>
<use xlink:href="#glyph-0-1" x="168.42" y="273.69"/>
<use xlink:href="#glyph-0-10" x="172.02" y="273.69"/>
<use xlink:href="#glyph-0-10" x="179.68" y="273.69"/>
<use xlink:href="#glyph-0-26" x="184.28" y="273.69"/>
<use xlink:href="#glyph-0-19" x="188.88" y="273.69"/>
<use xlink:href="#glyph-0-10" x="193.99" y="273.69"/>
<use xlink:href="#glyph-0-3" x="201.66" y="273.69"/>
<use xlink:href="#glyph-0-5" x="205.75" y="273.69"/>
<use xlink:href="#glyph-0-12" x="210.35" y="273.69"/>
<use xlink:href="#glyph-0-14" x="218.53" y="273.69"/>
<use xlink:href="#glyph-0-15" x="222.11" y="273.69"/>
<use xlink:href="#glyph-0-1" x="226.19" y="273.69"/>
<use xlink:href="#glyph-0-16" x="229.79" y="273.69"/>
<use xlink:href="#glyph-0-4" x="237.46" y="273.69"/>
<use xlink:href="#glyph-0-3" x="240.02" y="273.69"/>
<use xlink:href="#glyph-0-10" x="244.11" y="273.69"/>
<use xlink:href="#glyph-0-9" x="248.7" y="273.69"/>
<use xlink:href="#glyph-0-38" x="252.33" y="273.69"/>
<use xlink:href="#glyph-0-36" x="257.95" y="273.69"/>
<use xlink:href="#glyph-0-39" x="264.47" y="273.69"/>
<use xlink:href="#glyph-0-1" x="272.14" y="273.69"/>
<use xlink:href="#glyph-0-2" x="275.73" y="273.69"/>
<use xlink:href="#glyph-0-6" x="279.83" y="273.69"/>
<use xlink:href="#glyph-0-19" x="284.94" y="273.69"/>
<use xlink:href="#glyph-0-3" x="290.05" y="273.69"/>
<use xlink:href="#glyph-0-2" x="294.14" y="273.69"/>
<use xlink:href="#glyph-0-8" x="301.29" y="273.69"/>
<use xlink:href="#glyph-0-10" x="303.84" y="273.69"/>
<use xlink:href="#glyph-0-6" x="311.51" y="273.69"/>
<use xlink:href="#glyph-0-2" x="316.62" y="273.69"/>
<use xlink:href="#glyph-0-16" x="320.72" y="273.69"/>
<use xlink:href="#glyph-0-10" x="328.38" y="273.69"/>
<use xlink:href="#glyph-0-12" x="332.98" y="273.69"/>
<use xlink:href="#glyph-0-6" x="338.09" y="273.69"/>
<use xlink:href="#glyph-0-10" x="343.2" y="273.69"/>
<use xlink:href="#glyph-0-3" x="350.86" y="273.69"/>
<use xlink:href="#glyph-0-5" x="354.95" y="273.69"/>
<use xlink:href="#glyph-0-12" x="359.55" y="273.69"/>
<use xlink:href="#glyph-0-1" x="10.3" y="284.63"/>
<use xlink:href="#glyph-0-2" x="13.9" y="284.63"/>
<use xlink:href="#glyph-0-14" x="17.99" y="284.63"/>
<use xlink:href="#glyph-0-10" x="21.57" y="284.63"/>
<use xlink:href="#glyph-0-1" x="26.17" y="284.63"/>
<use xlink:href="#glyph-0-6" x="29.77" y="284.63"/>
<use xlink:href="#glyph-0-5" x="34.88" y="284.63"/>
<use xlink:href="#glyph-0-38" x="39.48" y="284.63"/>
<use xlink:href="#glyph-0-22" x="45.1" y="284.63"/>
<use xlink:href="#glyph-0-37" x="51.88" y="284.63"/>
<use xlink:href="#glyph-0-2" x="59.54" y="284.63"/>
<use xlink:href="#glyph-0-9" x="63.63" y="284.63"/>
<use xlink:href="#glyph-0-8" x="70.33" y="284.63"/>
<use xlink:href="#glyph-0-10" x="72.88" y="284.63"/>
<use xlink:href="#glyph-0-2" x="80.54" y="284.63"/>
<use xlink:href="#glyph-0-9" x="84.63" y="284.63"/>
<use xlink:href="#glyph-0-29" x="88.26" y="284.63"/>
<use xlink:href="#glyph-0-4" x="93.37" y="284.63"/>
<use xlink:href="#glyph-0-1" x="95.93" y="284.63"/>
<use xlink:href="#glyph-0-10" x="99.53" y="284.63"/>
<use xlink:href="#glyph-0-8" x="104.13" y="284.63"/>
<use xlink:href="#glyph-0-6" x="109.75" y="284.63"/>
<use xlink:href="#glyph-0-2" x="114.86" y="284.63"/>
<use xlink:href="#glyph-0-29" x="122.02" y="284.63"/>
<use xlink:href="#glyph-0-15" x="127.39" y="284.63"/>
<use xlink:href="#glyph-0-1" x="131.48" y="284.63"/>
<use xlink:href="#glyph-0-6" x="135.08" y="284.63"/>
<use xlink:href="#glyph-0-4" x="140.19" y="284.63"/>
<use xlink:href="#glyph-0-6" x="142.74" y="284.63"/>
<use xlink:href="#glyph-0-10" x="147.85" y="284.63"/>
<use xlink:href="#glyph-0-9" x="152.45" y="284.63"/>
<use xlink:href="#glyph-0-6" x="159.14" y="284.63"/>
<use xlink:href="#glyph-0-2" x="164.25" y="284.63"/>
<use xlink:href="#glyph-0-8" x="171.42" y="284.63"/>
<use xlink:href="#glyph-0-10" x="173.97" y="284.63"/>
<use xlink:href="#glyph-0-9" x="178.57" y="284.63"/>
<use xlink:href="#glyph-0-14" x="185.27" y="284.63"/>
<use xlink:href="#glyph-0-15" x="188.85" y="284.63"/>
<use xlink:href="#glyph-0-1" x="192.93" y="284.63"/>
<use xlink:href="#glyph-0-16" x="196.53" y="284.63"/>
<use xlink:href="#glyph-0-4" x="204.2" y="284.63"/>
<use xlink:href="#glyph-0-3" x="206.76" y="284.63"/>
<use xlink:href="#glyph-0-10" x="210.84" y="284.63"/>
<use xlink:href="#glyph-0-9" x="215.44" y="284.63"/>
<use xlink:href="#glyph-0-10" x="222.14" y="284.63"/>
<use xlink:href="#glyph-0-8" x="229.81" y="284.63"/>
<use xlink:href="#glyph-0-27" x="232.36" y="284.63"/>
<use xlink:href="#glyph-0-28" x="234.92" y="284.63"/>
<use xlink:href="#glyph-0-19" x="239.77" y="284.63"/>
<use xlink:href="#glyph-0-4" x="244.88" y="284.63"/>
<use xlink:href="#glyph-0-6" x="247.44" y="284.63"/>
<use xlink:href="#glyph-0-5" x="252.55" y="284.63"/>
<use xlink:href="#glyph-0-9" x="257.15" y="284.63"/>
<use xlink:href="#glyph-0-40" x="263.84" y="284.63"/>
<use xlink:href="#glyph-0-36" x="271.76" y="284.63"/>
<use xlink:href="#glyph-0-41" x="278.28" y="284.63"/>
<use xlink:href="#glyph-0-2" x="285.95" y="284.63"/>
<use xlink:href="#glyph-0-9" x="290.03" y="284.63"/>
<use xlink:href="#glyph-0-8" x="296.73" y="284.63"/>
<use xlink:href="#glyph-0-10" x="299.28" y="284.63"/>
<use xlink:href="#glyph-0-4" x="306.95" y="284.63"/>
<use xlink:href="#glyph-0-12" x="309.51" y="284.63"/>
<use xlink:href="#glyph-0-21" x="314.36" y="284.63"/>
<use xlink:href="#glyph-0-2" x="318.96" y="284.63"/>
<use xlink:href="#glyph-0-1" x="323.06" y="284.63"/>
<use xlink:href="#glyph-0-9" x="326.65" y="284.63"/>
<use xlink:href="#glyph-0-4" x="330.28" y="284.63"/>
<use xlink:href="#glyph-0-13" x="332.84" y="284.63"/>
<use xlink:href="#glyph-0-12" x="337.44" y="284.63"/>
<use xlink:href="#glyph-0-38" x="342.55" y="284.63"/>
<use xlink:href="#glyph-0-3" x="348.16" y="284.63"/>
<use xlink:href="#glyph-0-5" x="352.25" y="284.63"/>
<use xlink:href="#glyph-0-12" x="356.85" y="284.63"/>
<use xlink:href="#glyph-0-10" x="365.03" y="284.63"/>
<use xlink:href="#glyph-0-42" x="369.63" y="284.63"/>
<use xlink:href="#glyph-0-5" x="374.74" y="284.63"/>
<use xlink:href="#glyph-0-9" x="379.34" y="284.63"/>
<use xlink:href="#glyph-0-6" x="10.3" y="295.57"/>
<use xlink:href="#glyph-0-2" x="15.41" y="295.57"/>
<use xlink:href="#glyph-0-1" x="22.58" y="295.57"/>
<use xlink:href="#glyph-0-2" x="26.17" y="295.57"/>
<use xlink:href="#glyph-0-14" x="30.26" y="295.57"/>
<use xlink:href="#glyph-0-10" x="33.84" y="295.57"/>
<use xlink:href="#glyph-0-1" x="38.44" y="295.57"/>
<use xlink:href="#glyph-0-6" x="42.03" y="295.57"/>
<use xlink:href="#glyph-0-5" x="47.14" y="295.57"/>
<use xlink:href="#glyph-0-43" x="51.74" y="295.57"/>
<use xlink:href="#glyph-0-32" x="57.37" y="295.57"/>
<use xlink:href="#glyph-0-10" x="63.12" y="295.57"/>
<use xlink:href="#glyph-0-9" x="67.72" y="295.57"/>
<use xlink:href="#glyph-0-1" x="74.42" y="295.57"/>
<use xlink:href="#glyph-0-2" x="78.01" y="295.57"/>
<use xlink:href="#glyph-0-9" x="82.11" y="295.57"/>
<use xlink:href="#glyph-0-2" x="85.73" y="295.57"/>
<use xlink:href="#glyph-0-1" x="89.83" y="295.57"/>
<use xlink:href="#glyph-0-21" x="93.43" y="295.57"/>
<use xlink:href="#glyph-0-10" x="97.76" y="295.57"/>
<use xlink:href="#glyph-0-9" x="102.36" y="295.57"/>
<use xlink:href="#glyph-0-19" x="109.06" y="295.57"/>
<use xlink:href="#glyph-0-14" x="114.17" y="295.57"/>
<use xlink:href="#glyph-0-4" x="117.75" y="295.57"/>
<use xlink:href="#glyph-0-8" x="120.3" y="295.57"/>
<use xlink:href="#glyph-0-4" x="122.86" y="295.57"/>
<use xlink:href="#glyph-0-23" x="125.41" y="295.57"/>
<use xlink:href="#glyph-0-10" x="129.5" y="295.57"/>
<use xlink:href="#glyph-0-7" x="134.1" y="295.57"/>
<use xlink:href="#glyph-0-8" x="139.21" y="295.57"/>
<use xlink:href="#glyph-0-2" x="141.77" y="295.57"/>
<use xlink:href="#glyph-0-9" x="145.86" y="295.57"/>
<use xlink:href="#glyph-0-9" x="152.56" y="295.57"/>
<use xlink:href="#glyph-0-2" x="156.19" y="295.57"/>
<use xlink:href="#glyph-0-29" x="160.27" y="295.57"/>
<use xlink:href="#glyph-0-10" x="165.38" y="295.57"/>
<use xlink:href="#glyph-0-1" x="169.98" y="295.57"/>
<use xlink:href="#glyph-0-10" x="173.58" y="295.57"/>
<use xlink:href="#glyph-0-12" x="178.18" y="295.57"/>
<use xlink:href="#glyph-0-2" x="186.36" y="295.57"/>
<use xlink:href="#glyph-0-8" x="190.45" y="295.57"/>
<use xlink:href="#glyph-0-10" x="196.08" y="295.57"/>
<use xlink:href="#glyph-0-26" x="200.68" y="295.57"/>
<use xlink:href="#glyph-0-19" x="205.28" y="295.57"/>
<use xlink:href="#glyph-0-10" x="210.39" y="295.57"/>
<use xlink:href="#glyph-0-28" x="218.05" y="295.57"/>
<use xlink:href="#glyph-0-19" x="222.9" y="295.57"/>
<use xlink:href="#glyph-0-2" x="228.01" y="295.57"/>
<use xlink:href="#glyph-0-17" x="235.17" y="295.57"/>
<use xlink:href="#glyph-0-10" x="240.29" y="295.57"/>
<use xlink:href="#glyph-0-40" x="244.63" y="295.57"/>
<use xlink:href="#glyph-0-6" x="252.55" y="295.57"/>
<use xlink:href="#glyph-0-2" x="257.66" y="295.57"/>
<use xlink:href="#glyph-0-8" x="261.75" y="295.57"/>
<use xlink:href="#glyph-0-10" x="267.37" y="295.57"/>
<use xlink:href="#glyph-0-26" x="271.97" y="295.57"/>
<use xlink:href="#glyph-0-19" x="276.57" y="295.57"/>
<use xlink:href="#glyph-0-10" x="281.68" y="295.57"/>
<use xlink:href="#glyph-0-28" x="289.35" y="295.57"/>
<use xlink:href="#glyph-0-19" x="294.2" y="295.57"/>
<use xlink:href="#glyph-0-2" x="299.31" y="295.57"/>
<use xlink:href="#glyph-0-9" x="306.48" y="295.57"/>
<use xlink:href="#glyph-0-2" x="310.11" y="295.57"/>
<use xlink:href="#glyph-0-29" x="317.26" y="295.57"/>
<use xlink:href="#glyph-0-19" x="322.37" y="295.57"/>
<use xlink:href="#glyph-0-2" x="327.48" y="295.57"/>
<use xlink:href="#glyph-0-6" x="331.57" y="295.57"/>
<use xlink:href="#glyph-0-2" x="336.68" y="295.57"/>
<use xlink:href="#glyph-0-19" x="343.84" y="295.57"/>
<use xlink:href="#glyph-0-9" x="348.96" y="295.57"/>
<use xlink:href="#glyph-0-10" x="352.58" y="295.57"/>
<use xlink:href="#glyph-0-1" x="357.18" y="295.57"/>
<use xlink:href="#glyph-0-43" x="360.78" y="295.57"/>
</g>
</svg>
