<?xml version="1.0" encoding="UTF-8"?>
<svg xmlns="http://www.w3.org/2000/svg" xmlns:xlink="http://www.w3.org/1999/xlink" width="383.827pt" height="227.922pt" viewBox="0 0 383.827 227.922">
<defs>
<g>
<g id="glyph-0-0">
<path d="M 6.5625 -5.84375 L 6.5625 -6.125 C 6.078125 -6.109375 5.953125 -6.09375 5.515625 -6.09375 C 5.078125 -6.09375 4.953125 -6.109375 4.453125 -6.125 L 4.453125 -5.84375 C 5.375 -5.84375 5.375 -5.421875 5.375 -5.171875 L 5.375 -2.0625 C 5.375 -0.84375 4.5 -0.078125 3.59375 -0.078125 C 3.078125 -0.078125 2.0625 -0.390625 2.0625 -2.015625 L 2.0625 -5.421875 C 2.0625 -5.75 2.078125 -5.84375 2.765625 -5.84375 L 2.984375 -5.84375 L 2.984375 -6.125 C 2.578125 -6.09375 2.078125 -6.09375 1.65625 -6.09375 C 1.25 -6.09375 0.75 -6.09375 0.34375 -6.125 L 0.34375 -5.84375 L 0.546875 -5.84375 C 1.234375 -5.84375 1.25 -5.75 1.25 -5.421875 L 1.25 -2.0625 C 1.25 -0.75 2.34375 0.203125 3.578125 0.203125 C 4.890625 0.203125 5.65625 -1.03125 5.65625 -1.921875 L 5.65625 -5.15625 C 5.65625 -5.421875 5.65625 -5.84375 6.5625 -5.84375 Z M 6.5625 -5.84375 "/>
</g>
<g id="glyph-0-1">
<path d="M 4.90625 0 L 4.90625 -0.28125 C 4.453125 -0.28125 4.21875 -0.28125 4.21875 -0.5625 L 4.21875 -2.28125 C 4.21875 -3.015625 4.21875 -3.28125 3.96875 -3.59375 C 3.765625 -3.84375 3.421875 -3.96875 2.96875 -3.96875 C 2.140625 -3.96875 1.75 -3.34375 1.625 -3.09375 L 1.609375 -3.09375 L 1.609375 -3.96875 L 0.3125 -3.859375 L 0.3125 -3.59375 C 0.921875 -3.59375 1 -3.53125 1 -3.078125 L 1 -0.6875 C 1 -0.28125 0.90625 -0.28125 0.3125 -0.28125 L 0.3125 0 C 0.734375 -0.015625 0.90625 -0.03125 1.34375 -0.03125 C 1.765625 -0.03125 1.890625 -0.015625 2.359375 0 L 2.359375 -0.28125 C 1.765625 -0.28125 1.671875 -0.28125 1.671875 -0.6875 L 1.671875 -2.328125 C 1.671875 -3.28125 2.34375 -3.734375 2.90625 -3.734375 C 3.4375 -3.734375 3.546875 -3.296875 3.546875 -2.765625 L 3.546875 -0.6875 C 3.546875 -0.28125 3.453125 -0.28125 2.859375 -0.28125 L 2.859375 0 C 3.28125 -0.015625 3.453125 -0.03125 3.890625 -0.03125 C 4.3125 -0.03125 4.4375 -0.015625 4.90625 0 Z M 4.90625 0 "/>
</g>
<g id="glyph-0-2">
<path d="M 4.453125 -0.796875 L 4.453125 -1.296875 L 4.203125 -1.296875 L 4.203125 -0.8125 C 4.203125 -0.703125 4.203125 -0.265625 3.890625 -0.265625 C 3.5625 -0.265625 3.5625 -0.6875 3.5625 -0.828125 L 3.5625 -2.40625 C 3.5625 -2.921875 3.5625 -3.21875 3.15625 -3.59375 C 2.828125 -3.890625 2.390625 -4.015625 1.953125 -4.015625 C 1.1875 -4.015625 0.5625 -3.640625 0.5625 -3.0625 C 0.5625 -2.796875 0.75 -2.640625 0.984375 -2.640625 C 1.234375 -2.640625 1.40625 -2.8125 1.40625 -3.046875 C 1.40625 -3.4375 1 -3.484375 1 -3.484375 C 1.234375 -3.71875 1.671875 -3.796875 1.921875 -3.796875 C 2.390625 -3.796875 2.890625 -3.453125 2.890625 -2.65625 L 2.890625 -2.375 C 2.40625 -2.34375 1.734375 -2.3125 1.140625 -2.015625 C 0.5 -1.703125 0.296875 -1.234375 0.296875 -0.875 C 0.296875 -0.140625 1.171875 0.09375 1.765625 0.09375 C 2.515625 0.09375 2.859375 -0.390625 2.984375 -0.640625 C 3.015625 -0.265625 3.28125 0.046875 3.671875 0.046875 C 3.890625 0.046875 4.453125 -0.078125 4.453125 -0.796875 Z M 2.890625 -1.265625 C 2.890625 -0.390625 2.21875 -0.125 1.828125 -0.125 C 1.40625 -0.125 1.015625 -0.4375 1.015625 -0.875 C 1.015625 -1.46875 1.53125 -2.09375 2.890625 -2.15625 Z M 2.890625 -1.265625 "/>
</g>
<g id="glyph-0-3">
<path d="M 4.34375 -1.90625 C 4.34375 -3.078125 3.40625 -4.015625 2.3125 -4.015625 C 1.171875 -4.015625 0.265625 -3.0625 0.265625 -1.90625 C 0.265625 -0.796875 1.1875 0.09375 2.296875 0.09375 C 3.4375 0.09375 4.34375 -0.8125 4.34375 -1.90625 Z M 3.5625 -1.984375 C 3.5625 -1.65625 3.5625 -1.140625 3.34375 -0.75 C 3.09375 -0.328125 2.6875 -0.15625 2.3125 -0.15625 C 1.859375 -0.15625 1.484375 -0.375 1.28125 -0.71875 C 1.046875 -1.109375 1.03125 -1.578125 1.03125 -1.984375 C 1.03125 -2.328125 1.03125 -2.828125 1.25 -3.203125 C 1.53125 -3.65625 1.96875 -3.796875 2.296875 -3.796875 C 2.8125 -3.796875 3.171875 -3.5 3.359375 -3.203125 C 3.5625 -2.828125 3.5625 -2.375 3.5625 -1.984375 Z M 3.5625 -1.984375 "/>
</g>
<g id="glyph-0-4">
<path d="M 4.84375 0 L 4.84375 -0.28125 C 4.25 -0.28125 4.15625 -0.28125 4.15625 -0.6875 L 4.15625 -3.96875 L 2.984375 -3.890625 C 2.84375 -3.890625 2.828125 -3.875 2.828125 -3.875 C 2.8125 -3.859375 2.796875 -3.859375 2.65625 -3.859375 L 1.5625 -3.859375 L 1.5625 -4.859375 C 1.5625 -5.78125 2.40625 -6.09375 2.921875 -6.09375 C 3.125 -6.09375 3.46875 -6.046875 3.6875 -5.828125 C 3.34375 -5.796875 3.296875 -5.515625 3.296875 -5.40625 C 3.296875 -5.140625 3.5 -4.984375 3.71875 -4.984375 C 3.953125 -4.984375 4.140625 -5.15625 4.140625 -5.40625 C 4.140625 -5.921875 3.65625 -6.328125 2.9375 -6.328125 C 2.03125 -6.328125 0.953125 -5.84375 0.953125 -4.875 L 0.953125 -3.859375 L 0.25 -3.859375 L 0.25 -3.59375 L 0.953125 -3.59375 L 0.953125 -0.6875 C 0.953125 -0.28125 0.859375 -0.28125 0.265625 -0.28125 L 0.265625 0 C 0.6875 -0.015625 0.859375 -0.03125 1.28125 -0.03125 C 1.6875 -0.03125 1.84375 -0.015625 2.28125 0 L 2.28125 -0.28125 C 1.6875 -0.28125 1.59375 -0.28125 1.59375 -0.6875 L 1.59375 -3.59375 L 3.046875 -3.59375 C 3.46875 -3.59375 3.515625 -3.46875 3.515625 -3.109375 L 3.515625 -0.6875 C 3.515625 -0.28125 3.421875 -0.28125 2.828125 -0.28125 L 2.828125 0 C 3.25 -0.015625 3.421875 -0.03125 3.828125 -0.03125 C 4.25 -0.03125 4.40625 -0.015625 4.84375 0 Z M 4.84375 0 "/>
</g>
<g id="glyph-0-5">
<path d="M 3.828125 -1.0625 C 3.828125 -1.171875 3.734375 -1.171875 3.703125 -1.171875 C 3.609375 -1.171875 3.609375 -1.15625 3.546875 -1 C 3.34375 -0.390625 2.84375 -0.15625 2.390625 -0.15625 C 1.8125 -0.15625 1.078125 -0.625 1.078125 -1.953125 C 1.078125 -3.34375 1.796875 -3.765625 2.328125 -3.765625 C 2.453125 -3.765625 2.9375 -3.75 3.265625 -3.53125 C 3.078125 -3.484375 2.890625 -3.359375 2.890625 -3.109375 C 2.890625 -2.875 3.078125 -2.6875 3.3125 -2.6875 C 3.546875 -2.6875 3.734375 -2.84375 3.734375 -3.125 C 3.734375 -3.671875 3.109375 -4.015625 2.3125 -4.015625 C 1.171875 -4.015625 0.3125 -3.0625 0.3125 -1.9375 C 0.3125 -0.78125 1.234375 0.09375 2.296875 0.09375 C 3.546875 0.09375 3.828125 -0.984375 3.828125 -1.0625 Z M 3.828125 -1.0625 "/>
</g>
<g id="glyph-0-6">
<path d="M 2.265625 0 L 2.265625 -0.28125 C 1.6875 -0.28125 1.65625 -0.328125 1.65625 -0.671875 L 1.65625 -3.96875 L 0.359375 -3.859375 L 0.359375 -3.59375 C 0.9375 -3.59375 1.015625 -3.53125 1.015625 -3.09375 L 1.015625 -0.6875 C 1.015625 -0.28125 0.921875 -0.28125 0.328125 -0.28125 L 0.328125 0 C 0.71875 -0.015625 0.921875 -0.03125 1.3125 -0.03125 C 1.453125 -0.03125 1.828125 -0.03125 2.265625 0 Z M 1.765625 -5.40625 C 1.765625 -5.671875 1.546875 -5.890625 1.28125 -5.890625 C 1.015625 -5.890625 0.796875 -5.671875 0.796875 -5.40625 C 0.796875 -5.140625 1.015625 -4.921875 1.28125 -4.921875 C 1.546875 -4.921875 1.765625 -5.140625 1.765625 -5.40625 Z M 1.765625 -5.40625 "/>
</g>
<g id="glyph-0-7">
<path d="M 4.84375 0 L 4.84375 -0.28125 C 4.234375 -0.28125 4.15625 -0.34375 4.15625 -0.78125 L 4.15625 -6.21875 L 2.828125 -6.125 L 2.828125 -5.84375 C 3.4375 -5.84375 3.515625 -5.78125 3.515625 -5.34375 L 3.515625 -3.4375 C 3.46875 -3.484375 3.0625 -3.96875 2.375 -3.96875 C 1.265625 -3.96875 0.3125 -3.078125 0.3125 -1.921875 C 0.3125 -0.8125 1.203125 0.09375 2.265625 0.09375 C 2.921875 0.09375 3.328125 -0.28125 3.484375 -0.46875 L 3.484375 0.09375 Z M 3.484375 -1.078125 C 3.484375 -0.921875 3.484375 -0.890625 3.359375 -0.703125 C 3.078125 -0.296875 2.65625 -0.125 2.3125 -0.125 C 1.921875 -0.125 1.5625 -0.34375 1.328125 -0.71875 C 1.09375 -1.109375 1.078125 -1.625 1.078125 -1.921875 C 1.078125 -2.34375 1.125 -2.8125 1.359375 -3.171875 C 1.5625 -3.46875 1.921875 -3.734375 2.40625 -3.734375 C 2.78125 -3.734375 3.140625 -3.546875 3.375 -3.203125 C 3.484375 -3.0625 3.484375 -3.0625 3.484375 -2.890625 Z M 3.484375 -1.078125 "/>
</g>
<g id="glyph-0-8">
<path d="M 3.828125 -1.0625 C 3.828125 -1.125 3.78125 -1.1875 3.703125 -1.1875 C 3.609375 -1.1875 3.59375 -1.125 3.578125 -1.078125 C 3.28125 -0.171875 2.46875 -0.15625 2.34375 -0.15625 C 1.90625 -0.15625 1.546875 -0.390625 1.34375 -0.703125 C 1.046875 -1.140625 1.03125 -1.671875 1.03125 -2.046875 L 3.59375 -2.046875 C 3.78125 -2.046875 3.828125 -2.046875 3.828125 -2.25 C 3.828125 -3.171875 3.328125 -4.015625 2.171875 -4.015625 C 1.109375 -4.015625 0.265625 -3.078125 0.265625 -1.96875 C 0.265625 -0.796875 1.203125 0.09375 2.296875 0.09375 C 3.390625 0.09375 3.828125 -0.859375 3.828125 -1.0625 Z M 3.21875 -2.265625 L 1.046875 -2.265625 C 1.125 -3.65625 1.921875 -3.796875 2.171875 -3.796875 C 2.671875 -3.796875 3.203125 -3.421875 3.21875 -2.265625 Z M 3.21875 -2.265625 "/>
</g>
<g id="glyph-0-9">
<path d="M 4.671875 -3.59375 L 4.671875 -3.859375 C 4.40625 -3.84375 3.984375 -3.84375 3.984375 -3.84375 C 3.734375 -3.84375 3.453125 -3.84375 3.203125 -3.859375 L 3.203125 -3.59375 C 3.46875 -3.5625 3.609375 -3.4375 3.609375 -3.203125 C 3.609375 -3.109375 3.609375 -3.09375 3.5625 -3 L 2.640625 -0.734375 L 1.609375 -3.1875 C 1.59375 -3.234375 1.5625 -3.296875 1.5625 -3.359375 C 1.5625 -3.59375 1.890625 -3.59375 2.0625 -3.59375 L 2.0625 -3.859375 C 1.671875 -3.84375 1.46875 -3.84375 1.078125 -3.84375 C 0.765625 -3.84375 0.5 -3.84375 0.171875 -3.859375 L 0.171875 -3.59375 C 0.59375 -3.59375 0.765625 -3.59375 0.90625 -3.25 L 2.21875 -0.078125 C 2.265625 0.078125 2.34375 0.09375 2.421875 0.09375 C 2.5 0.09375 2.578125 0.078125 2.640625 -0.078125 L 3.859375 -3.015625 C 4.046875 -3.46875 4.359375 -3.578125 4.671875 -3.59375 Z M 4.671875 -3.59375 "/>
</g>
<g id="glyph-0-10">
<path d="M 3.0625 -1.109375 L 3.0625 -1.625 L 2.8125 -1.625 L 2.8125 -1.140625 C 2.8125 -0.46875 2.53125 -0.15625 2.21875 -0.15625 C 1.609375 -0.15625 1.609375 -0.9375 1.609375 -1.109375 L 1.609375 -3.59375 L 2.921875 -3.59375 L 2.921875 -3.859375 L 1.609375 -3.859375 L 1.609375 -5.515625 L 1.359375 -5.515625 C 1.359375 -4.765625 1.046875 -3.84375 0.171875 -3.8125 L 0.171875 -3.59375 L 0.953125 -3.59375 L 0.953125 -1.109375 C 0.953125 -0.109375 1.671875 0.09375 2.15625 0.09375 C 2.75 0.09375 3.0625 -0.46875 3.0625 -1.109375 Z M 3.0625 -1.109375 "/>
</g>
<g id="glyph-0-11">
<path d="M 4.8125 -1.9375 C 4.8125 -3.0625 3.921875 -3.96875 2.875 -3.96875 C 2.390625 -3.96875 1.9375 -3.765625 1.59375 -3.40625 L 1.59375 -3.96875 L 0.265625 -3.859375 L 0.265625 -3.59375 C 0.90625 -3.59375 0.953125 -3.53125 0.953125 -3.140625 L 0.953125 1.046875 C 0.953125 1.46875 0.859375 1.46875 0.265625 1.46875 L 0.265625 1.734375 C 0.6875 1.71875 0.859375 1.71875 1.296875 1.71875 C 1.71875 1.71875 1.84375 1.71875 2.3125 1.734375 L 2.3125 1.46875 C 1.71875 1.46875 1.625 1.46875 1.625 1.046875 L 1.625 -0.4375 C 1.859375 -0.203125 2.15625 0.09375 2.75 0.09375 C 3.828125 0.09375 4.8125 -0.765625 4.8125 -1.9375 Z M 4.03125 -1.9375 C 4.03125 -0.921875 3.421875 -0.125 2.703125 -0.125 C 2.296875 -0.125 1.953125 -0.359375 1.734375 -0.671875 C 1.625 -0.859375 1.625 -0.875 1.625 -1.046875 L 1.625 -3.015625 C 1.921875 -3.53125 2.421875 -3.71875 2.796875 -3.71875 C 3.5 -3.71875 4.03125 -2.90625 4.03125 -1.9375 Z M 4.03125 -1.9375 "/>
</g>
<g id="glyph-0-12">
<path d="M 3.34375 -3.40625 C 3.34375 -3.6875 3.078125 -3.96875 2.671875 -3.96875 C 2.140625 -3.96875 1.765625 -3.59375 1.546875 -3.03125 L 1.546875 -3.96875 L 0.265625 -3.859375 L 0.265625 -3.59375 C 0.875 -3.59375 0.953125 -3.53125 0.953125 -3.078125 L 0.953125 -0.6875 C 0.953125 -0.28125 0.859375 -0.28125 0.265625 -0.28125 L 0.265625 0 C 0.75 -0.015625 0.859375 -0.03125 1.3125 -0.03125 L 2.453125 0 L 2.453125 -0.28125 L 2.28125 -0.28125 C 1.625 -0.28125 1.59375 -0.375 1.59375 -0.703125 L 1.59375 -2.046875 C 1.59375 -2.421875 1.6875 -3.734375 2.71875 -3.734375 C 2.703125 -3.71875 2.5625 -3.609375 2.5625 -3.40625 C 2.5625 -3.15625 2.75 -3 2.953125 -3 C 3.140625 -3 3.34375 -3.140625 3.34375 -3.40625 Z M 3.34375 -3.40625 "/>
</g>
<g id="glyph-0-13">
<path d="M 3.3125 -1.140625 C 3.3125 -1.546875 3.140625 -1.796875 2.9375 -2 C 2.640625 -2.296875 2.3125 -2.359375 1.65625 -2.484375 C 1.421875 -2.53125 0.765625 -2.640625 0.765625 -3.15625 C 0.765625 -3.4375 0.96875 -3.828125 1.78125 -3.828125 C 2.75 -3.828125 2.8125 -3.078125 2.828125 -2.859375 C 2.84375 -2.75 2.84375 -2.6875 2.953125 -2.6875 C 3.078125 -2.6875 3.078125 -2.75 3.078125 -2.921875 L 3.078125 -3.78125 C 3.078125 -3.9375 3.078125 -4.015625 2.984375 -4.015625 C 2.9375 -4.015625 2.921875 -4.015625 2.796875 -3.90625 C 2.78125 -3.890625 2.703125 -3.8125 2.640625 -3.765625 C 2.375 -3.96875 2.09375 -4.015625 1.78125 -4.015625 C 0.59375 -4.015625 0.3125 -3.359375 0.3125 -2.90625 C 0.3125 -2.625 0.4375 -2.390625 0.640625 -2.1875 C 0.9375 -1.90625 1.28125 -1.84375 1.734375 -1.765625 C 2.203125 -1.671875 2.34375 -1.65625 2.546875 -1.5 C 2.640625 -1.421875 2.859375 -1.25 2.859375 -0.921875 C 2.859375 -0.125 1.953125 -0.125 1.828125 -0.125 C 0.921875 -0.125 0.6875 -0.890625 0.578125 -1.375 C 0.546875 -1.46875 0.53125 -1.515625 0.4375 -1.515625 C 0.3125 -1.515625 0.3125 -1.4375 0.3125 -1.28125 L 0.3125 -0.140625 C 0.3125 0.015625 0.3125 0.09375 0.40625 0.09375 C 0.46875 0.09375 0.46875 0.09375 0.640625 -0.078125 C 0.671875 -0.140625 0.765625 -0.25 0.8125 -0.296875 C 1.1875 0.078125 1.609375 0.09375 1.828125 0.09375 C 2.9375 0.09375 3.3125 -0.546875 3.3125 -1.140625 Z M 3.3125 -1.140625 "/>
</g>
<g id="glyph-0-14">
<path d="M 1.765625 -0.484375 C 1.765625 -0.75 1.546875 -0.96875 1.28125 -0.96875 C 1 -0.96875 0.796875 -0.75 0.796875 -0.484375 C 0.796875 -0.21875 1 0 1.28125 0 C 1.546875 0 1.765625 -0.21875 1.765625 -0.484375 Z M 1.765625 -0.484375 "/>
</g>
<g id="glyph-0-15">
<path d="M 2.34375 0 L 2.34375 -0.28125 C 1.75 -0.28125 1.65625 -0.28125 1.65625 -0.6875 L 1.65625 -6.21875 L 0.328125 -6.125 L 0.328125 -5.84375 C 0.9375 -5.84375 1.015625 -5.78125 1.015625 -5.34375 L 1.015625 -0.6875 C 1.015625 -0.28125 0.921875 -0.28125 0.328125 -0.28125 L 0.328125 0 C 0.75 -0.015625 0.921875 -0.03125 1.328125 -0.03125 C 1.75 -0.03125 1.90625 -0.015625 2.34375 0 Z M 2.34375 0 "/>
</g>
<g id="glyph-0-16">
<path d="M 4.46875 -3.609375 C 4.46875 -3.78125 4.34375 -4.0625 3.984375 -4.0625 C 3.734375 -4.0625 3.328125 -3.96875 3.015625 -3.640625 C 2.765625 -3.84375 2.421875 -3.96875 2.046875 -3.96875 C 1.1875 -3.96875 0.546875 -3.359375 0.546875 -2.640625 C 0.546875 -2.1875 0.8125 -1.859375 0.953125 -1.734375 C 0.9375 -1.71875 0.6875 -1.40625 0.6875 -0.984375 C 0.6875 -0.6875 0.828125 -0.359375 1.078125 -0.203125 C 0.625 -0.046875 0.265625 0.28125 0.265625 0.703125 C 0.265625 1.34375 1.140625 1.84375 2.296875 1.84375 C 3.40625 1.84375 4.34375 1.375 4.34375 0.6875 C 4.34375 0.3125 4.171875 -0.078125 3.84375 -0.296875 C 3.34375 -0.609375 2.8125 -0.609375 1.96875 -0.609375 C 1.78125 -0.609375 1.5 -0.609375 1.421875 -0.625 C 1.171875 -0.6875 1 -0.921875 1 -1.203125 C 1 -1.359375 1.046875 -1.484375 1.125 -1.609375 C 1.34375 -1.46875 1.625 -1.328125 2.03125 -1.328125 C 2.890625 -1.328125 3.53125 -1.9375 3.53125 -2.640625 C 3.53125 -3.078125 3.28125 -3.390625 3.171875 -3.515625 C 3.53125 -3.84375 3.953125 -3.84375 4.046875 -3.84375 C 4.015625 -3.8125 3.9375 -3.765625 3.9375 -3.609375 C 3.9375 -3.5 4 -3.34375 4.203125 -3.34375 C 4.328125 -3.34375 4.46875 -3.421875 4.46875 -3.609375 Z M 2.84375 -2.640625 C 2.84375 -2.4375 2.84375 -1.5625 2.03125 -1.5625 C 1.234375 -1.5625 1.234375 -2.453125 1.234375 -2.640625 C 1.234375 -2.890625 1.25 -3.1875 1.40625 -3.40625 C 1.546875 -3.59375 1.78125 -3.71875 2.03125 -3.71875 C 2.84375 -3.71875 2.84375 -2.859375 2.84375 -2.640625 Z M 3.84375 0.6875 C 3.84375 1.203125 3.140625 1.609375 2.3125 1.609375 C 1.421875 1.609375 0.765625 1.1875 0.765625 0.6875 C 0.765625 0.546875 0.859375 -0.046875 1.625 -0.046875 L 2.453125 -0.046875 C 2.734375 -0.046875 3.84375 -0.03125 3.84375 0.6875 Z M 3.84375 0.6875 "/>
</g>
<g id="glyph-0-17">
<path d="M 3.0625 2.140625 C 3.0625 2.09375 3.03125 2.0625 2.984375 2 C 1.828125 0.9375 1.46875 -0.671875 1.46875 -2.25 C 1.46875 -3.625 1.734375 -5.3125 3 -6.515625 C 3.046875 -6.5625 3.0625 -6.578125 3.0625 -6.625 C 3.0625 -6.6875 3.015625 -6.734375 2.953125 -6.734375 C 2.84375 -6.734375 2.03125 -6.078125 1.546875 -5.109375 C 1.125 -4.25 0.90625 -3.3125 0.90625 -2.25 C 0.90625 -1.609375 0.984375 -0.578125 1.484375 0.46875 C 2.015625 1.578125 2.84375 2.234375 2.953125 2.234375 C 3.015625 2.234375 3.0625 2.203125 3.0625 2.140625 Z M 3.0625 2.140625 "/>
</g>
<g id="glyph-0-18">
<path d="M 1.953125 0.4375 L 1.953125 -3.96875 L 0.5625 -3.859375 L 0.5625 -3.59375 C 1.234375 -3.59375 1.3125 -3.53125 1.3125 -3.078125 L 1.3125 0.453125 C 1.3125 0.71875 1.28125 1.609375 0.671875 1.609375 C 0.640625 1.609375 0.40625 1.609375 0.203125 1.5 C 0.484375 1.421875 0.484375 1.171875 0.484375 1.109375 C 0.484375 0.875 0.3125 0.703125 0.078125 0.703125 C -0.1875 0.703125 -0.34375 0.875 -0.34375 1.125 C -0.34375 1.59375 0.171875 1.84375 0.6875 1.84375 C 1.390625 1.84375 1.953125 1.25 1.953125 0.4375 Z M 1.953125 -5.40625 C 1.953125 -5.671875 1.734375 -5.890625 1.46875 -5.890625 C 1.203125 -5.890625 0.984375 -5.671875 0.984375 -5.40625 C 0.984375 -5.140625 1.203125 -4.921875 1.46875 -4.921875 C 1.734375 -4.921875 1.953125 -5.140625 1.953125 -5.40625 Z M 1.953125 -5.40625 "/>
</g>
<g id="glyph-0-19">
<path d="M 2.671875 -2.25 C 2.671875 -2.984375 2.5625 -3.96875 2.09375 -4.96875 C 1.5625 -6.078125 0.734375 -6.734375 0.625 -6.734375 C 0.53125 -6.734375 0.515625 -6.65625 0.515625 -6.625 C 0.515625 -6.578125 0.53125 -6.5625 0.59375 -6.5 C 1.125 -6.03125 2.109375 -4.8125 2.109375 -2.25 C 2.109375 -0.96875 1.875 0.8125 0.578125 2.03125 C 0.5625 2.046875 0.515625 2.09375 0.515625 2.140625 C 0.515625 2.15625 0.53125 2.234375 0.625 2.234375 C 0.734375 2.234375 1.546875 1.59375 2.03125 0.609375 C 2.453125 -0.25 2.671875 -1.171875 2.671875 -2.25 Z M 2.671875 -2.25 "/>
</g>
</g>
</defs>
<path fill-rule="nonzero" fill="rgb(100%, 100%, 100%)" fill-opacity="1" stroke-width="0.79701" stroke-linecap="butt" stroke-linejoin="miter" stroke="rgb(37.255859%, 37.255859%, 37.255859%)" stroke-opacity="1" stroke-miterlimit="10" d="M 7.084787 -0.000281009 C 7.084787 3.915546 3.91539 7.084942 -0.000436486 7.084942 C -3.912355 7.084942 -7.08566 3.915546 -7.08566 -0.000281009 C -7.08566 -3.9122 -3.912355 -7.085504 -0.000436486 -7.085504 C 3.91539 -7.085504 7.084787 -3.9122 7.084787 -0.000281009 Z M 7.084787 -0.000281009 " transform="matrix(0.999549, 0, 0, -0.999549, 29.191843, 125.538782)"/>
<path fill-rule="nonzero" fill="rgb(100%, 100%, 100%)" fill-opacity="1" stroke-width="0.79701" stroke-linecap="butt" stroke-linejoin="miter" stroke="rgb(37.255859%, 37.255859%, 37.255859%)" stroke-opacity="1" stroke-miterlimit="10" d="M 7.084787 31.181736 C 7.084787 35.093655 3.91539 38.266959 -0.000436486 38.266959 C -3.912355 38.266959 -7.08566 35.093655 -7.08566 31.181736 C -7.08566 27.265909 -3.912355 24.096513 -0.000436486 24.096513 C 3.91539 24.096513 7.084787 27.265909 7.084787 31.181736 Z M 7.084787 31.181736 " transform="matrix(0.999549, 0, 0, -0.999549, 29.191843, 125.538782)"/>
<path fill-rule="nonzero" fill="rgb(100%, 100%, 100%)" fill-opacity="1" stroke-width="0.79701" stroke-linecap="butt" stroke-linejoin="miter" stroke="rgb(37.255859%, 37.255859%, 37.255859%)" stroke-opacity="1" stroke-miterlimit="10" d="M 7.084787 62.363753 C 7.084787 66.275671 3.91539 69.448976 -0.000436486 69.448976 C -3.912355 69.448976 -7.08566 66.275671 -7.08566 62.363753 C -7.08566 58.447926 -3.912355 55.278529 -0.000436486 55.278529 C 3.91539 55.278529 7.084787 58.447926 7.084787 62.363753 Z M 7.084787 62.363753 " transform="matrix(0.999549, 0, 0, -0.999549, 29.191843, 125.538782)"/>
<path fill-rule="nonzero" fill="rgb(100%, 100%, 100%)" fill-opacity="1" stroke-width="0.79701" stroke-linecap="butt" stroke-linejoin="miter" stroke="rgb(37.255859%, 37.255859%, 37.255859%)" stroke-opacity="1" stroke-miterlimit="10" d="M 7.084787 93.54577 C 7.084787 97.457688 3.91539 100.630993 -0.000436486 100.630993 C -3.912355 100.630993 -7.08566 97.457688 -7.08566 93.54577 C -7.08566 89.629943 -3.912355 86.456638 -0.000436486 86.456638 C 3.91539 86.456638 7.084787 89.629943 7.084787 93.54577 Z M 7.084787 93.54577 " transform="matrix(0.999549, 0, 0, -0.999549, 29.191843, 125.538782)"/>
<path fill-rule="nonzero" fill="rgb(100%, 100%, 100%)" fill-opacity="1" stroke-width="0.79701" stroke-linecap="butt" stroke-linejoin="miter" stroke="rgb(37.255859%, 37.255859%, 37.255859%)" stroke-opacity="1" stroke-miterlimit="10" d="M 43.937327 -0.000281009 C 43.937327 3.915546 40.764023 7.084942 36.852104 7.084942 C 32.936277 7.084942 29.762973 3.915546 29.762973 -0.000281009 C 29.762973 -3.9122 32.936277 -7.085504 36.852104 -7.085504 C 40.764023 -7.085504 43.937327 -3.9122 43.937327 -0.000281009 Z M 43.937327 -0.000281009 " transform="matrix(0.999549, 0, 0, -0.999549, 29.191843, 125.538782)"/>
<path fill-rule="nonzero" fill="rgb(100%, 100%, 100%)" fill-opacity="1" stroke-width="0.79701" stroke-linecap="butt" stroke-linejoin="miter" stroke="rgb(37.255859%, 37.255859%, 37.255859%)" stroke-opacity="1" stroke-miterlimit="10" d="M 43.937327 31.181736 C 43.937327 35.093655 40.764023 38.266959 36.852104 38.266959 C 32.936277 38.266959 29.762973 35.093655 29.762973 31.181736 C 29.762973 27.265909 32.936277 24.096513 36.852104 24.096513 C 40.764023 24.096513 43.937327 27.265909 43.937327 31.181736 Z M 43.937327 31.181736 " transform="matrix(0.999549, 0, 0, -0.999549, 29.191843, 125.538782)"/>
<path fill-rule="nonzero" fill="rgb(100%, 100%, 100%)" fill-opacity="1" stroke-width="0.79701" stroke-linecap="butt" stroke-linejoin="miter" stroke="rgb(37.255859%, 37.255859%, 37.255859%)" stroke-opacity="1" stroke-miterlimit="10" d="M 43.937327 62.363753 C 43.937327 66.275671 40.764023 69.448976 36.852104 69.448976 C 32.936277 69.448976 29.762973 66.275671 29.762973 62.363753 C 29.762973 58.447926 32.936277 55.278529 36.852104 55.278529 C 40.764023 55.278529 43.937327 58.447926 43.937327 62.363753 Z M 43.937327 62.363753 " transform="matrix(0.999549, 0, 0, -0.999549, 29.191843, 125.538782)"/>
<path fill-rule="nonzero" fill="rgb(100%, 100%, 100%)" fill-opacity="1" stroke-width="0.79701" stroke-linecap="butt" stroke-linejoin="miter" stroke="rgb(37.255859%, 37.255859%, 37.255859%)" stroke-opacity="1" stroke-miterlimit="10" d="M 43.937327 93.54577 C 43.937327 97.457688 40.764023 100.630993 36.852104 100.630993 C 32.936277 100.630993 29.762973 97.457688 29.762973 93.54577 C 29.762973 89.629943 32.936277 86.456638 36.852104 86.456638 C 40.764023 86.456638 43.937327 89.629943 43.937327 93.54577 Z M 43.937327 93.54577 " transform="matrix(0.999549, 0, 0, -0.999549, 29.191843, 125.538782)"/>
<path fill-rule="nonzero" fill="rgb(100%, 100%, 100%)" fill-opacity="1" stroke-width="0.79701" stroke-linecap="butt" stroke-linejoin="miter" stroke="rgb(37.255859%, 37.255859%, 37.255859%)" stroke-opacity="1" stroke-miterlimit="10" d="M 80.789867 -0.000281009 C 80.789867 3.915546 77.616563 7.084942 73.700736 7.084942 C 69.788818 7.084942 66.615513 3.915546 66.615513 -0.000281009 C 66.615513 -3.9122 69.788818 -7.085504 73.700736 -7.085504 C 77.616563 -7.085504 80.789867 -3.9122 80.789867 -0.000281009 Z M 80.789867 -0.000281009 " transform="matrix(0.999549, 0, 0, -0.999549, 29.191843, 125.538782)"/>
<path fill-rule="nonzero" fill="rgb(100%, 100%, 100%)" fill-opacity="1" stroke-width="0.79701" stroke-linecap="butt" stroke-linejoin="miter" stroke="rgb(37.255859%, 37.255859%, 37.255859%)" stroke-opacity="1" stroke-miterlimit="10" d="M 80.789867 31.181736 C 80.789867 35.093655 77.616563 38.266959 73.700736 38.266959 C 69.788818 38.266959 66.615513 35.093655 66.615513 31.181736 C 66.615513 27.265909 69.788818 24.096513 73.700736 24.096513 C 77.616563 24.096513 80.789867 27.265909 80.789867 31.181736 Z M 80.789867 31.181736 " transform="matrix(0.999549, 0, 0, -0.999549, 29.191843, 125.538782)"/>
<path fill-rule="nonzero" fill="rgb(100%, 100%, 100%)" fill-opacity="1" stroke-width="0.79701" stroke-linecap="butt" stroke-linejoin="miter" stroke="rgb(37.255859%, 37.255859%, 37.255859%)" stroke-opacity="1" stroke-miterlimit="10" d="M 80.789867 62.363753 C 80.789867 66.275671 77.616563 69.448976 73.700736 69.448976 C 69.788818 69.448976 66.615513 66.275671 66.615513 62.363753 C 66.615513 58.447926 69.788818 55.278529 73.700736 55.278529 C 77.616563 55.278529 80.789867 58.447926 80.789867 62.363753 Z M 80.789867 62.363753 " transform="matrix(0.999549, 0, 0, -0.999549, 29.191843, 125.538782)"/>
<path fill-rule="nonzero" fill="rgb(100%, 100%, 100%)" fill-opacity="1" stroke-width="0.79701" stroke-linecap="butt" stroke-linejoin="miter" stroke="rgb(37.255859%, 37.255859%, 37.255859%)" stroke-opacity="1" stroke-miterlimit="10" d="M 80.789867 93.54577 C 80.789867 97.457688 77.616563 100.630993 73.700736 100.630993 C 69.788818 100.630993 66.615513 97.457688 66.615513 93.54577 C 66.615513 89.629943 69.788818 86.456638 73.700736 86.456638 C 77.616563 86.456638 80.789867 89.629943 80.789867 93.54577 Z M 80.789867 93.54577 " transform="matrix(0.999549, 0, 0, -0.999549, 29.191843, 125.538782)"/>
<path fill-rule="nonzero" fill="rgb(100%, 100%, 100%)" fill-opacity="1" stroke-width="0.79701" stroke-linecap="butt" stroke-linejoin="miter" stroke="rgb(37.255859%, 37.255859%, 37.255859%)" stroke-opacity="1" stroke-miterlimit="10" d="M 117.6385 -0.000281009 C 117.6385 3.915546 114.465195 7.084942 110.553277 7.084942 C 106.63745 7.084942 103.468053 3.915546 103.468053 -0.000281009 C 103.468053 -3.9122 106.63745 -7.085504 110.553277 -7.085504 C 114.465195 -7.085504 117.6385 -3.9122 117.6385 -0.000281009 Z M 117.6385 -0.000281009 " transform="matrix(0.999549, 0, 0, -0.999549, 29.191843, 125.538782)"/>
<path fill-rule="nonzero" fill="rgb(100%, 100%, 100%)" fill-opacity="1" stroke-width="0.79701" stroke-linecap="butt" stroke-linejoin="miter" stroke="rgb(37.255859%, 37.255859%, 37.255859%)" stroke-opacity="1" stroke-miterlimit="10" d="M 117.6385 31.181736 C 117.6385 35.093655 114.465195 38.266959 110.553277 38.266959 C 106.63745 38.266959 103.468053 35.093655 103.468053 31.181736 C 103.468053 27.265909 106.63745 24.096513 110.553277 24.096513 C 114.465195 24.096513 117.6385 27.265909 117.6385 31.181736 Z M 117.6385 31.181736 " transform="matrix(0.999549, 0, 0, -0.999549, 29.191843, 125.538782)"/>
<path fill-rule="nonzero" fill="rgb(100%, 100%, 100%)" fill-opacity="1" stroke-width="0.79701" stroke-linecap="butt" stroke-linejoin="miter" stroke="rgb(37.255859%, 37.255859%, 37.255859%)" stroke-opacity="1" stroke-miterlimit="10" d="M 117.6385 62.363753 C 117.6385 66.275671 114.465195 69.448976 110.553277 69.448976 C 106.63745 69.448976 103.468053 66.275671 103.468053 62.363753 C 103.468053 58.447926 106.63745 55.278529 110.553277 55.278529 C 114.465195 55.278529 117.6385 58.447926 117.6385 62.363753 Z M 117.6385 62.363753 " transform="matrix(0.999549, 0, 0, -0.999549, 29.191843, 125.538782)"/>
<path fill-rule="nonzero" fill="rgb(100%, 100%, 100%)" fill-opacity="1" stroke-width="0.79701" stroke-linecap="butt" stroke-linejoin="miter" stroke="rgb(37.255859%, 37.255859%, 37.255859%)" stroke-opacity="1" stroke-miterlimit="10" d="M 117.6385 93.54577 C 117.6385 97.457688 114.465195 100.630993 110.553277 100.630993 C 106.63745 100.630993 103.468053 97.457688 103.468053 93.54577 C 103.468053 89.629943 106.63745 86.456638 110.553277 86.456638 C 114.465195 86.456638 117.6385 89.629943 117.6385 93.54577 Z M 117.6385 93.54577 " transform="matrix(0.999549, 0, 0, -0.999549, 29.191843, 125.538782)"/>
<path fill-rule="nonzero" fill="rgb(100%, 100%, 100%)" fill-opacity="1" stroke-width="0.79701" stroke-linecap="butt" stroke-linejoin="miter" stroke="rgb(37.255859%, 37.255859%, 37.255859%)" stroke-opacity="1" stroke-miterlimit="10" d="M 154.49104 -0.000281009 C 154.49104 3.915546 151.317736 7.084942 147.401909 7.084942 C 143.48999 7.084942 140.316686 3.915546 140.316686 -0.000281009 C 140.316686 -3.9122 143.48999 -7.085504 147.401909 -7.085504 C 151.317736 -7.085504 154.49104 -3.9122 154.49104 -0.000281009 Z M 154.49104 -0.000281009 " transform="matrix(0.999549, 0, 0, -0.999549, 29.191843, 125.538782)"/>
<path fill-rule="nonzero" fill="rgb(100%, 100%, 100%)" fill-opacity="1" stroke-width="0.79701" stroke-linecap="butt" stroke-linejoin="miter" stroke="rgb(37.255859%, 37.255859%, 37.255859%)" stroke-opacity="1" stroke-miterlimit="10" d="M 154.49104 31.181736 C 154.49104 35.093655 151.317736 38.266959 147.401909 38.266959 C 143.48999 38.266959 140.316686 35.093655 140.316686 31.181736 C 140.316686 27.265909 143.48999 24.096513 147.401909 24.096513 C 151.317736 24.096513 154.49104 27.265909 154.49104 31.181736 Z M 154.49104 31.181736 " transform="matrix(0.999549, 0, 0, -0.999549, 29.191843, 125.538782)"/>
<path fill-rule="nonzero" fill="rgb(100%, 100%, 100%)" fill-opacity="1" stroke-width="0.79701" stroke-linecap="butt" stroke-linejoin="miter" stroke="rgb(37.255859%, 37.255859%, 37.255859%)" stroke-opacity="1" stroke-miterlimit="10" d="M 154.49104 62.363753 C 154.49104 66.275671 151.317736 69.448976 147.401909 69.448976 C 143.48999 69.448976 140.316686 66.275671 140.316686 62.363753 C 140.316686 58.447926 143.48999 55.278529 147.401909 55.278529 C 151.317736 55.278529 154.49104 58.447926 154.49104 62.363753 Z M 154.49104 62.363753 " transform="matrix(0.999549, 0, 0, -0.999549, 29.191843, 125.538782)"/>
<path fill-rule="nonzero" fill="rgb(100%, 100%, 100%)" fill-opacity="1" stroke-width="0.79701" stroke-linecap="butt" stroke-linejoin="miter" stroke="rgb(37.255859%, 37.255859%, 37.255859%)" stroke-opacity="1" stroke-miterlimit="10" d="M 154.49104 93.54577 C 154.49104 97.457688 151.317736 100.630993 147.401909 100.630993 C 143.48999 100.630993 140.316686 97.457688 140.316686 93.54577 C 140.316686 89.629943 143.48999 86.456638 147.401909 86.456638 C 151.317736 86.456638 154.49104 89.629943 154.49104 93.54577 Z M 154.49104 93.54577 " transform="matrix(0.999549, 0, 0, -0.999549, 29.191843, 125.538782)"/>
<path fill-rule="nonzero" fill="rgb(80.784607%, 6.666565%, 14.901733%)" fill-opacity="1" stroke-width="0.79701" stroke-linecap="butt" stroke-linejoin="miter" stroke="rgb(80.784607%, 6.666565%, 14.901733%)" stroke-opacity="1" stroke-miterlimit="10" d="M 80.789867 31.181736 C 80.789867 35.093655 77.616563 38.266959 73.700736 38.266959 C 69.788818 38.266959 66.615513 35.093655 66.615513 31.181736 C 66.615513 27.265909 69.788818 24.096513 73.700736 24.096513 C 77.616563 24.096513 80.789867 27.265909 80.789867 31.181736 Z M 80.789867 31.181736 " transform="matrix(0.999549, 0, 0, -0.999549, 29.191843, 125.538782)"/>
<g fill="rgb(0%, 0%, 0%)" fill-opacity="1">
<use xlink:href="#glyph-0-0" x="7.20975" y="161.278673"/>
<use xlink:href="#glyph-0-1" x="14.117042" y="161.278673"/>
<use xlink:href="#glyph-0-2" x="19.234549" y="161.278673"/>
</g>
<g fill="rgb(0%, 0%, 0%)" fill-opacity="1">
<use xlink:href="#glyph-0-3" x="26.914396" y="161.278673"/>
<use xlink:href="#glyph-0-4" x="31.520153" y="161.278673"/>
<use xlink:href="#glyph-0-5" x="36.637661" y="161.278673"/>
<use xlink:href="#glyph-0-6" x="40.731667" y="161.278673"/>
<use xlink:href="#glyph-0-1" x="43.290421" y="161.278673"/>
<use xlink:href="#glyph-0-2" x="48.407929" y="161.278673"/>
</g>
<g fill="rgb(0%, 0%, 0%)" fill-opacity="1">
<use xlink:href="#glyph-0-7" x="56.078813" y="161.278673"/>
<use xlink:href="#glyph-0-8" x="61.196321" y="161.278673"/>
</g>
<g fill="rgb(0%, 0%, 0%)" fill-opacity="1">
<use xlink:href="#glyph-0-9" x="68.368002" y="161.278673"/>
</g>
<g fill="rgb(0%, 0%, 0%)" fill-opacity="1">
<use xlink:href="#glyph-0-8" x="72.969278" y="161.278673"/>
<use xlink:href="#glyph-0-6" x="77.066869" y="161.278673"/>
<use xlink:href="#glyph-0-1" x="79.625623" y="161.278673"/>
</g>
<g fill="rgb(0%, 0%, 0%)" fill-opacity="1">
<use xlink:href="#glyph-0-10" x="84.492185" y="161.278673"/>
<use xlink:href="#glyph-0-8" x="88.07444" y="161.278673"/>
</g>
<g fill="rgb(0%, 0%, 0%)" fill-opacity="1">
<use xlink:href="#glyph-0-11" x="95.237158" y="161.278673"/>
</g>
<g fill="rgb(0%, 0%, 0%)" fill-opacity="1">
<use xlink:href="#glyph-0-8" x="100.614575" y="161.278673"/>
<use xlink:href="#glyph-0-12" x="104.712166" y="161.278673"/>
<use xlink:href="#glyph-0-13" x="108.315035" y="161.278673"/>
<use xlink:href="#glyph-0-3" x="111.948376" y="161.278673"/>
<use xlink:href="#glyph-0-1" x="116.554133" y="161.278673"/>
<use xlink:href="#glyph-0-2" x="121.671641" y="161.278673"/>
<use xlink:href="#glyph-0-13" x="126.277398" y="161.278673"/>
<use xlink:href="#glyph-0-14" x="129.910739" y="161.278673"/>
</g>
<g fill="rgb(0%, 0%, 0%)" fill-opacity="1">
<use xlink:href="#glyph-0-0" x="135.53462" y="161.278673"/>
<use xlink:href="#glyph-0-1" x="142.441911" y="161.278673"/>
<use xlink:href="#glyph-0-2" x="147.559419" y="161.278673"/>
</g>
<g fill="rgb(0%, 0%, 0%)" fill-opacity="1">
<use xlink:href="#glyph-0-15" x="155.239265" y="161.278673"/>
<use xlink:href="#glyph-0-15" x="157.798019" y="161.278673"/>
<use xlink:href="#glyph-0-8" x="160.356773" y="161.278673"/>
<use xlink:href="#glyph-0-16" x="164.454364" y="161.278673"/>
<use xlink:href="#glyph-0-2" x="169.060122" y="161.278673"/>
</g>
<g fill="rgb(0%, 0%, 0%)" fill-opacity="1">
<use xlink:href="#glyph-0-5" x="176.731006" y="161.278673"/>
<use xlink:href="#glyph-0-3" x="180.825012" y="161.278673"/>
<use xlink:href="#glyph-0-1" x="185.430769" y="161.278673"/>
</g>
<g fill="rgb(0%, 0%, 0%)" fill-opacity="1">
<use xlink:href="#glyph-0-16" x="193.622367" y="161.278673"/>
<use xlink:href="#glyph-0-12" x="198.228124" y="161.278673"/>
<use xlink:href="#glyph-0-6" x="201.830993" y="161.278673"/>
<use xlink:href="#glyph-0-11" x="204.389746" y="161.278673"/>
</g>
<g fill="rgb(0%, 0%, 0%)" fill-opacity="1">
<use xlink:href="#glyph-0-8" x="209.7582" y="161.278673"/>
</g>
<g fill="rgb(0%, 0%, 0%)" fill-opacity="1">
<use xlink:href="#glyph-0-17" x="216.929881" y="161.278673"/>
<use xlink:href="#glyph-0-12" x="220.512137" y="161.278673"/>
<use xlink:href="#glyph-0-3" x="224.115006" y="161.278673"/>
</g>
<g fill="rgb(0%, 0%, 0%)" fill-opacity="1">
<use xlink:href="#glyph-0-18" x="228.971709" y="161.278673"/>
<use xlink:href="#glyph-0-3" x="231.78589" y="161.278673"/>
<use xlink:href="#glyph-0-19" x="236.391647" y="161.278673"/>
<use xlink:href="#glyph-0-14" x="239.973902" y="161.278673"/>
</g>
</svg>
